<svg width="30" height="32" viewBox="0 0 30 32" fill="none" xmlns="http://www.w3.org/2000/svg">
<mask id="mask0" mask-type="alpha" maskUnits="userSpaceOnUse" x="0" y="0" width="30" height="30">
<path fill-rule="evenodd" clip-rule="evenodd" d="M0.351074 29.9405H29.2563V0.957764H0.351074V29.9405Z" fill="white"/>
</mask>
<g mask="url(#mask0)">
<path fill-rule="evenodd" clip-rule="evenodd" d="M27.661 0.957764H1.94636C1.06522 0.957764 0.351074 1.67382 0.351074 2.55733V28.3409C0.351074 29.2243 1.06522 29.9406 1.94636 29.9406H15.7903V18.7169H12.0233V14.3428H15.7903V11.117C15.7903 7.37362 18.0705 5.33523 21.401 5.33523C22.9964 5.33523 24.3675 5.45425 24.767 5.50746V9.41961L22.4572 9.4207C20.6459 9.4207 20.2951 10.2837 20.2951 11.5501V14.3428H24.615L24.0526 18.7169H20.2951V29.9406H27.661C28.542 29.9406 29.2563 29.2243 29.2563 28.3409V2.55733C29.2563 1.67382 28.542 0.957764 27.661 0.957764Z" fill="#4B4B4B"/>
</g>
</svg>
