<svg width="33" height="32" viewBox="0 0 33 32" fill="none" xmlns="http://www.w3.org/2000/svg">
<path fill-rule="evenodd" clip-rule="evenodd" d="M27.9792 26.9562H23.1213V19.5462C23.1213 17.7795 23.0894 15.5064 20.5958 15.5064C18.0676 15.5064 17.6817 17.4318 17.6817 19.4202V26.9562H12.8283V11.7193H17.4861V13.8026H17.5525C18.2005 12.6044 19.7867 11.3415 22.1511 11.3415C27.0701 11.3415 27.9792 14.4962 27.9792 18.5999V26.9562ZM7.34902 9.63782C5.78824 9.63782 4.53052 8.40769 4.53052 6.8911C4.53052 5.37539 5.78824 4.14526 7.34902 4.14526C8.90343 4.14526 10.1657 5.37539 10.1657 6.8911C10.1657 8.40769 8.90343 9.63782 7.34902 9.63782ZM4.9165 26.9565H9.77995V11.7196H4.9165V26.9565ZM30.401 0.0253906H2.4799C1.14664 0.0253906 0.0627441 1.05597 0.0627441 2.32778V29.6496C0.0627441 30.9214 1.14664 31.9537 2.4799 31.9537H30.401C31.7379 31.9537 32.8245 30.9214 32.8245 29.6496V2.32778C32.8245 1.05597 31.7379 0.0253906 30.401 0.0253906Z" fill="#5F9442"/>
</svg>
