<svg width="18" height="25" viewBox="0 0 18 25" fill="none" xmlns="http://www.w3.org/2000/svg">
<g clip-path="url(#clip0)">
<path d="M9.49869 24.75C9.33789 24.75 9.19145 24.6709 9.10635 24.5386L2.03734 13.5007C1.19528 12.1834 0.75 10.6638 0.75 9.10681C0.75 4.49865 4.61896 0.75 9.375 0.75C14.131 0.75 18 4.49865 18 9.10681C18 10.6178 17.5795 12.0981 16.7834 13.388L9.89498 24.5328C9.81285 24.6656 9.66294 24.7486 9.50314 24.7505H9.49869V24.75ZM9.375 1.63491C5.12261 1.63491 1.66331 4.98665 1.66331 9.10681C1.66331 10.4869 2.06406 11.8435 2.82202 13.0295L9.49176 23.4437L15.9913 12.9293C16.7047 11.7726 17.0817 10.451 17.0817 9.10729C17.0817 4.98665 13.6244 1.63491 9.375 1.63491Z" fill="#5F9442"/>
<path d="M9.37536 13.1493C7.07477 13.1493 5.20312 11.3359 5.20312 9.10683C5.20312 6.87778 7.07477 5.06433 9.37536 5.06433C11.676 5.06433 13.5476 6.87778 13.5476 9.10683C13.5476 10.1773 13.1211 11.1868 12.3463 11.95C11.5612 12.7237 10.5059 13.1493 9.37536 13.1493ZM9.37536 5.94924C7.57843 5.94924 6.11644 7.36577 6.11644 9.10683C6.11644 10.8479 7.57843 12.2644 9.37536 12.2644C11.1693 12.2644 12.6293 10.8479 12.6293 9.10683C12.6293 7.36577 11.1698 5.94924 9.37536 5.94924Z" fill="#5F9442"/>
</g>
<defs>
<clipPath id="clip0">
<rect width="17.25" height="24" fill="white" transform="translate(0.75 0.75)"/>
</clipPath>
</defs>
</svg>
