<svg width="23" height="17" viewBox="0 0 23 17" fill="none" xmlns="http://www.w3.org/2000/svg">
<g clip-path="url(#clip0)">
<path d="M2.4586 17C1.51633 17 0.75 16.2313 0.75 15.2862V2.21379C0.75 1.26866 1.51633 0.5 2.4586 0.5H20.7914C21.7337 0.5 22.5 1.26866 22.5 2.21379V15.2862C22.5 16.2313 21.7337 17 20.7914 17H2.4586ZM2.13408 16.1869H21.1159L14.275 9.32519L11.9552 11.6521C11.8787 11.7288 11.7766 11.771 11.6684 11.771C11.5607 11.771 11.4595 11.7292 11.383 11.6534L9.00801 9.29163L2.13408 16.1869ZM1.56064 15.6121L8.4324 8.7195L1.56064 1.88568V15.6121ZM14.8484 8.75L21.6894 15.6117V1.88829L14.8484 8.75ZM11.6671 10.7906L21.1159 1.3131H2.13669L11.6671 10.7906Z" fill="#5F9442"/>
</g>
<defs>
<clipPath id="clip0">
<rect width="21.75" height="16.5" fill="white" transform="translate(0.75 0.5)"/>
</clipPath>
</defs>
</svg>
