<svg width="32" height="28" viewBox="0 0 32 28" fill="none" xmlns="http://www.w3.org/2000/svg">
<path d="M0.193895 6.71754C0.29127 6.95504 0.534458 7.11236 0.791145 7.10342C1.0499 7.09442 1.27777 6.92304 1.36246 6.67948C1.44683 6.43698 1.36471 6.15823 1.16727 5.99579C0.960208 5.82542 0.657833 5.80798 0.432457 5.95335C0.182145 6.11467 0.0792694 6.44242 0.193895 6.71754Z" fill="black"/>
<path d="M25.9416 11.5075C26.0029 11.3496 26.0593 11.1921 26.1106 11.0357C26.4556 9.98321 26.5965 8.91321 26.5416 7.76459C26.4504 5.8619 25.5699 4.03265 24.0621 2.61378C22.6146 1.25153 20.7753 0.470215 19.0158 0.470215C16.3946 0.470215 14.346 1.93353 13.3581 2.80584C13.2846 2.87078 13.1775 2.87215 13.1035 2.8089C12.0796 1.93546 9.98583 0.470215 7.46683 0.470215C5.38533 0.470215 3.16952 1.59328 1.68408 3.40109C1.46496 3.66778 1.50346 4.06165 1.77014 4.28078C2.03689 4.49996 2.43071 4.4614 2.64983 4.19471C3.90395 2.66846 5.74977 1.72028 7.46683 1.72028C9.58495 1.72028 11.3993 2.99821 12.2922 3.75996C12.8356 4.22346 13.6495 4.21615 14.1855 3.7429C15.0409 2.98753 16.8061 1.72028 19.0158 1.72028C21.8408 1.72028 25.1256 4.33077 25.2929 7.8244C25.3404 8.81808 25.2193 9.74121 24.9226 10.6465C24.8523 10.8608 24.7732 11.0722 24.6831 11.2858C24.4321 11.262 24.1778 11.2498 23.9206 11.2498C19.4656 11.2498 15.8412 14.9014 15.8412 19.3898C15.8412 19.602 15.8493 19.8124 15.8653 20.0206C15.247 20.5248 14.7446 20.9376 14.3247 21.293C13.6906 21.8298 12.7704 21.8296 12.1364 21.2926C11.5693 20.8121 10.832 20.2113 10.0513 19.5752C7.23364 17.2791 3.37464 14.1346 2.44571 12.5563C1.83496 11.5187 1.47002 10.5789 1.29727 9.59865C1.27733 9.48533 1.25964 9.37015 1.24489 9.25621C1.20046 8.9139 0.886957 8.6724 0.544645 8.71683C0.202332 8.76127 -0.0391677 9.07483 0.00526983 9.41708C0.0224573 9.54971 0.0430198 9.68377 0.0662698 9.81558C0.26577 10.9475 0.679519 12.0199 1.36846 13.1903C2.41114 14.9619 6.20958 18.0571 9.2617 20.5441C10.0376 21.1764 10.7705 21.7736 11.3285 22.2463C11.8796 22.7133 12.5551 22.9466 13.2308 22.9466C13.906 22.9466 14.5814 22.7134 15.1323 22.2471C15.413 22.0095 15.7328 21.7446 16.1013 21.4422C17.0065 24.9403 20.1691 27.5297 23.9206 27.5297C28.3756 27.5297 32 23.8781 32 19.3898C32.0001 15.6041 29.4219 12.4138 25.9416 11.5075ZM23.9208 26.2796C20.1549 26.2796 17.0913 23.1888 17.0913 19.3897C17.0913 15.5906 20.1549 12.4998 23.9208 12.4998C27.6865 12.4998 30.7502 15.5906 30.7502 19.3897C30.7501 23.1888 27.6865 26.2796 23.9208 26.2796Z" fill="black"/>
<path d="M26.9144 17.2422H26.0554V16.3702C26.0554 15.6035 25.4344 14.9797 24.671 14.9797H23.1704C22.407 14.9797 21.786 15.6035 21.786 16.3702V17.2422H20.927C20.1637 17.2422 19.5427 17.866 19.5427 18.6327V20.1468C19.5427 20.9136 20.1637 21.5373 20.927 21.5373H21.786V22.4094C21.786 23.1761 22.407 23.7999 23.1704 23.7999H24.671C25.4344 23.7999 26.0554 23.1761 26.0554 22.4094V21.5373H26.9144C27.6777 21.5373 28.2987 20.9136 28.2987 20.1468V18.6327C28.2987 17.866 27.6777 17.2422 26.9144 17.2422ZM27.0487 20.1467C27.0487 20.2242 26.9885 20.2872 26.9144 20.2872H25.4304C25.0853 20.2872 24.8054 20.5671 24.8054 20.9122V22.4093C24.8054 22.4867 24.7452 22.5498 24.6711 22.5498H23.1704C23.0963 22.5498 23.0361 22.4868 23.0361 22.4093V20.9122C23.0361 20.5671 22.7562 20.2872 22.4111 20.2872H20.9271C20.853 20.2872 20.7928 20.2242 20.7928 20.1467V18.6327C20.7928 18.5552 20.853 18.4922 20.9271 18.4922H22.4111C22.7562 18.4922 23.0361 18.2124 23.0361 17.8672V16.3702C23.0361 16.2927 23.0964 16.2297 23.1704 16.2297H24.6711C24.7452 16.2297 24.8054 16.2927 24.8054 16.3702V17.8672C24.8054 18.2124 25.0853 18.4922 25.4304 18.4922H26.9144C26.9885 18.4922 27.0487 18.5552 27.0487 18.6327V20.1467Z" fill="black"/>
</svg>
