<svg width="44" height="68" viewBox="0 0 44 68" fill="none" xmlns="http://www.w3.org/2000/svg">
<ellipse cx="21.625" cy="62.9999" rx="21.375" ry="4.5" fill="#989898" fill-opacity="0.56"/>
<path d="M22 0.749878C10.0013 0.749878 0.25 10.5617 0.25 22.6349C0.25 26.7201 1.37375 30.6959 3.5125 34.1245L20.5258 62.1386C20.8158 62.6128 21.2508 62.9046 21.7583 62.9775C22.4471 63.0869 23.2083 62.7951 23.6071 62.1021L40.6688 33.8327C42.6988 30.477 43.75 26.5742 43.75 22.6349C43.75 10.5617 33.9988 0.749878 22 0.749878ZM22 33.5774C15.91 33.5774 11.125 28.6168 11.125 22.6349C11.125 16.6165 16.0188 11.6924 22 11.6924C27.9813 11.6924 32.875 16.6165 32.875 22.6349C32.875 28.5803 28.1625 33.5774 22 33.5774Z" fill="#964320"/>
</svg>
