<svg width="31" height="31" viewBox="0 0 31 31" fill="none" xmlns="http://www.w3.org/2000/svg">
<g clip-path="url(#clip0)">
<mask id="mask0" mask-type="alpha" maskUnits="userSpaceOnUse" x="0" y="0" width="31" height="30">
<path fill-rule="evenodd" clip-rule="evenodd" d="M0.483887 29.6956H30.235V0.749756H0.483887V29.6956Z" fill="white"/>
</mask>
<g mask="url(#mask0)">
<path fill-rule="evenodd" clip-rule="evenodd" d="M25.8356 25.4558H21.4241V18.7267C21.4241 17.1224 21.3951 15.0582 19.1307 15.0582C16.8348 15.0582 16.4844 16.8067 16.4844 18.6124V25.4558H12.077V11.6191H16.3067V13.511H16.3671C16.9555 12.4229 18.396 11.276 20.5431 11.276C25.01 11.276 25.8356 14.1408 25.8356 17.8674V25.4558ZM7.10098 9.72872C5.68363 9.72872 4.54148 8.61164 4.54148 7.23442C4.54148 5.858 5.68363 4.74092 7.10098 4.74092C8.51254 4.74092 9.65881 5.858 9.65881 7.23442C9.65881 8.61164 8.51254 9.72872 7.10098 9.72872ZM4.89193 25.4559H9.30843V11.6192H4.89193V25.4559ZM28.0341 0.999756H2.67892C1.46818 0.999756 0.483887 1.93562 0.483887 3.09056V27.9015C0.483887 29.0565 1.46818 29.9939 2.67892 29.9939H28.0341C29.2482 29.9939 30.235 29.0565 30.235 27.9015V3.09056C30.235 1.93562 29.2482 0.999756 28.0341 0.999756Z" fill="#4B4B4B"/>
</g>
</g>
<defs>
<clipPath id="clip0">
<rect width="30.1215" height="30.1215" fill="white" transform="translate(0.427246 0.749756)"/>
</clipPath>
</defs>
</svg>
