<svg width="35" height="34" viewBox="0 0 35 34" fill="none" xmlns="http://www.w3.org/2000/svg">
<mask id="mask0" mask-type="alpha" maskUnits="userSpaceOnUse" x="0" y="0" width="34" height="33">
<path fill-rule="evenodd" clip-rule="evenodd" d="M0.938965 32.3504H33.7296V0.447266H0.938965V32.3504V32.3504Z" fill="white"/>
</mask>
<g mask="url(#mask0)">
<path fill-rule="evenodd" clip-rule="evenodd" d="M28.8799 27.6776H24.0176V20.261C24.0176 18.4928 23.9858 16.2176 21.49 16.2176C18.9596 16.2176 18.5733 18.1448 18.5733 20.135V27.6776H13.7156V12.4272H18.3775V14.5124H18.444C19.0925 13.3132 20.6802 12.0491 23.0467 12.0491C27.9699 12.0491 28.8799 15.2066 28.8799 19.3139V27.6776V27.6776ZM8.23172 10.3437C6.66957 10.3437 5.41074 9.11254 5.41074 7.59461C5.41074 6.07757 6.66957 4.84636 8.23172 4.84636C9.78749 4.84636 11.0509 6.07757 11.0509 7.59461C11.0509 9.11254 9.78749 10.3437 8.23172 10.3437V10.3437ZM5.79706 27.6777H10.6648V12.4274H5.79706V27.6777ZM31.3034 0.722168H3.35776C2.02333 0.722168 0.938477 1.75365 0.938477 3.02658V30.3724C0.938477 31.6453 2.02333 32.6786 3.35776 32.6786H31.3034C32.6415 32.6786 33.7291 31.6453 33.7291 30.3724V3.02658C33.7291 1.75365 32.6415 0.722168 31.3034 0.722168V0.722168Z" fill="#5F9442"/>
</g>
</svg>
