<svg width="199" height="40" viewBox="0 0 199 40" fill="none" xmlns="http://www.w3.org/2000/svg">
<g clip-path="url(#clip0)">
<path d="M6.5104 27.102C6.10781 26.6994 5.8874 26.165 5.88868 25.5955C5.88995 25.0266 6.11354 24.4928 6.51805 24.0921C7.34553 23.2729 8.68899 23.2761 9.51265 24.0998L17.2505 31.8376C18.5538 33.1409 20.6738 33.1409 21.9771 31.8376L25.8412 27.9734C27.1446 26.6701 27.1446 24.5501 25.8412 23.2468L18.1123 15.5192C17.2849 14.6917 17.2849 13.3451 18.1123 12.5176C18.9398 11.6901 20.2865 11.6901 21.1139 12.5176L32.7063 24.11C33.5338 24.9374 33.5338 26.2841 32.7063 27.1116L21.1139 38.7039C20.2865 39.5314 18.9398 39.5314 18.1117 38.7039L6.5104 27.102Z" fill="#964320"/>
<path d="M0.819829 21.4113C-0.00765142 20.5838 -0.00765142 19.2371 0.819829 18.4097L18.2192 1.01026C19.0467 0.182778 20.3933 0.182778 21.2208 1.01026L38.5132 18.3026C39.3407 19.1301 39.3407 20.4768 38.5132 21.3042C37.6857 22.1317 36.3391 22.1317 35.5116 21.3042L22.0833 7.876C20.78 6.57267 18.66 6.57267 17.3567 7.876L13.4926 11.7401C12.1892 13.0434 12.1892 15.1634 13.4926 16.4668L21.2208 24.195C22.0483 25.0225 22.0483 26.3691 21.2208 27.1966C20.3933 28.0241 19.0467 28.0241 18.2192 27.1966L10.4903 19.469C9.187 18.1657 7.06702 18.1657 5.76369 19.469L3.8208 21.4119C2.99396 22.2394 1.64731 22.2394 0.819829 21.4113Z" fill="#5F9442"/>
<path d="M65.1401 13.6516H57.321V18.2872H64.9175V21.9741H57.321V29.5152H53.4668V9.96606H65.1401V13.6516Z" fill="#5F9442"/>
<path d="M71.8701 9.96631H75.7244V29.5155H71.8701V9.96631Z" fill="#5F9442"/>
<path d="M94.5757 9.96631H98.4299V29.5155H95.4981L87.1203 17.5628V29.5155H83.2646V9.96631H86.1965L94.5743 21.8913V9.96631H94.5757Z" fill="#5F9442"/>
<path d="M112.338 29.9067C110.402 29.9067 108.772 29.4738 107.45 28.6081C106.128 27.7424 105.198 26.5655 104.658 25.0747L107.954 23.1483C108.717 25.1411 110.216 26.1368 112.45 26.1368C113.53 26.1368 114.321 25.9418 114.824 25.5504C115.328 25.1591 115.578 24.6668 115.578 24.0707C115.578 23.382 115.271 22.8468 114.657 22.4651C114.043 22.0834 112.943 21.6685 111.361 21.2219C110.486 20.9619 109.746 20.7005 109.14 20.4391C108.535 20.1791 107.93 19.8292 107.325 19.3922C106.719 18.9552 106.258 18.4007 105.942 17.7299C105.625 17.0592 105.467 16.2779 105.467 15.3845C105.467 13.6157 106.095 12.2051 107.352 11.1541C108.609 10.1031 110.121 9.57617 111.891 9.57617C113.473 9.57617 114.866 9.96339 116.066 10.7351C117.266 11.5081 118.203 12.5827 118.873 13.9601L115.633 15.8312C114.852 14.1551 113.603 13.317 111.891 13.317C111.09 13.317 110.462 13.4982 110.006 13.8619C109.55 14.2242 109.321 14.6958 109.321 15.2725C109.321 15.8865 109.577 16.3857 110.089 16.766C110.601 17.1477 111.583 17.5626 113.036 18.0093C113.632 18.196 114.083 18.3398 114.39 18.4422C114.697 18.5445 115.116 18.7035 115.647 18.9165C116.178 19.1309 116.587 19.3314 116.876 19.5167C117.165 19.7034 117.495 19.9551 117.868 20.2704C118.24 20.5871 118.525 20.9121 118.72 21.2481C118.915 21.5828 119.084 21.988 119.223 22.4637C119.363 22.9381 119.432 23.4553 119.432 24.014C119.432 25.8201 118.775 27.2542 117.463 28.3149C116.15 29.3756 114.441 29.9067 112.338 29.9067Z" fill="#964320"/>
<path d="M129.571 25.8286H137.809V29.5155H125.717V9.96631H137.669V13.6532H129.571V17.8145H136.972V21.4447H129.571V25.8286Z" fill="#964320"/>
<path d="M155.737 9.96631H159.592V29.5155H156.66L148.282 17.5628V29.5155H144.428V9.96631H147.36L155.737 21.8913V9.96631Z" fill="#964320"/>
<path d="M173.5 29.9067C171.564 29.9067 169.935 29.4738 168.612 28.6081C167.29 27.7424 166.36 26.5655 165.82 25.0747L169.116 23.1483C169.879 25.1411 171.378 26.1368 173.612 26.1368C174.692 26.1368 175.483 25.9418 175.986 25.5504C176.488 25.1591 176.74 24.6668 176.74 24.0707C176.74 23.382 176.433 22.8468 175.819 22.4651C175.205 22.0834 174.105 21.6685 172.523 21.2219C171.648 20.9619 170.908 20.7005 170.304 20.4391C169.698 20.1791 169.094 19.8292 168.488 19.3922C167.882 18.9552 167.422 18.4007 167.105 17.7299C166.788 17.0592 166.631 16.2779 166.631 15.3845C166.631 13.6157 167.259 12.2051 168.516 11.1541C169.773 10.1031 171.284 9.57617 173.054 9.57617C174.637 9.57617 176.029 9.96339 177.23 10.7351C178.43 11.5081 179.366 12.5827 180.037 13.9601L176.797 15.8312C176.014 14.1551 174.767 13.317 173.054 13.317C172.254 13.317 171.626 13.4982 171.169 13.8619C170.713 14.2242 170.485 14.6958 170.485 15.2725C170.485 15.8865 170.741 16.3857 171.252 16.766C171.764 17.1477 172.746 17.5626 174.2 18.0093C174.796 18.196 175.246 18.3398 175.553 18.4422C175.86 18.5445 176.279 18.7035 176.81 18.9165C177.342 19.1309 177.751 19.3314 178.04 19.5167C178.329 19.7034 178.658 19.9551 179.031 20.2704C179.403 20.5871 179.688 20.9121 179.883 21.2481C180.078 21.5828 180.246 21.988 180.385 22.4637C180.525 22.9381 180.594 23.4553 180.594 24.014C180.594 25.8201 179.937 27.2542 178.625 28.3149C177.312 29.3756 175.603 29.9067 173.5 29.9067Z" fill="#964320"/>
<path d="M190.732 25.8286H198.97V29.5155H186.878V9.96631H198.831V13.6532H190.732V17.8145H198.134V21.4447H190.732V25.8286Z" fill="#964320"/>
</g>
<defs>
<clipPath id="clip0">
<rect width="198.77" height="39.7539" fill="white" transform="translate(0.199219 0.00219727)"/>
</clipPath>
</defs>
</svg>
