<svg width="265" height="53" viewBox="0 0 265 53" fill="none" xmlns="http://www.w3.org/2000/svg">
<path d="M8.41385 36.1293C7.87711 35.5926 7.58327 34.88 7.58497 34.1208C7.58667 33.3624 7.88476 32.6507 8.42405 32.1165C9.52724 31.0243 11.3183 31.0286 12.4164 32.1267L22.7325 42.4428C24.4701 44.1804 27.2965 44.1804 29.0341 42.4428L34.1857 37.2911C35.9233 35.5535 35.9233 32.7271 34.1857 30.9895L23.8816 20.6871C22.7784 19.5839 22.7784 17.7885 23.8816 16.6853C24.9848 15.5821 26.7801 15.5821 27.8833 16.6853L43.3383 32.1403C44.4415 33.2435 44.4415 35.0388 43.3383 36.142L27.8833 51.597C26.7801 52.7002 24.9848 52.7002 23.8807 51.597L8.41385 36.1293Z" fill="#964320"/>
<path d="M0.827399 28.5427C-0.2758 27.4395 -0.2758 25.6441 0.827399 24.5409L24.0243 1.344C25.1275 0.240802 26.9229 0.240802 28.0261 1.344L51.0803 24.3982C52.1835 25.5014 52.1835 27.2968 51.0803 28.4C49.9771 29.5032 48.1817 29.5032 47.0785 28.4L29.176 10.4974C27.4384 8.75981 24.612 8.75981 22.8744 10.4974L17.7227 15.6491C15.9851 17.3867 15.9851 20.213 17.7227 21.9506L28.0261 32.254C29.1293 33.3572 29.1293 35.1525 28.0261 36.2557C26.9229 37.3589 25.1275 37.3589 24.0243 36.2557L13.7201 25.9532C11.9825 24.2156 9.15617 24.2156 7.41857 25.9532L4.8283 28.5435C3.72595 29.6467 1.9306 29.6467 0.827399 28.5427Z" fill="#5F9442"/>
<path d="M86.5783 18.1975H76.1539V24.3776H86.2815V29.293H76.1539V39.3469H71.0154V13.2839H86.5783V18.1975Z" fill="#5F9442"/>
<path d="M95.5518 13.2839H100.69V39.3469H95.5518V13.2839Z" fill="#5F9442"/>
<path d="M125.822 13.2839H130.961V39.3469H127.052L115.883 23.4115V39.3469H110.742V13.2839H114.651L125.82 29.1824V13.2839H125.822Z" fill="#5F9442"/>
<path d="M149.503 39.8686C146.922 39.8686 144.75 39.2915 142.987 38.1373C141.225 36.9832 139.984 35.4142 139.265 33.4266L143.659 30.8583C144.676 33.5151 146.675 34.8426 149.652 34.8426C151.092 34.8426 152.147 34.5826 152.818 34.0608C153.489 33.5391 153.823 32.8827 153.823 32.0881C153.823 31.1699 153.414 30.4564 152.595 29.9475C151.776 29.4386 150.311 28.8855 148.201 28.29C147.034 27.9433 146.048 27.5949 145.24 27.2464C144.433 26.8998 143.627 26.4333 142.82 25.8507C142.012 25.2681 141.398 24.5288 140.976 23.6345C140.554 22.7403 140.343 21.6986 140.343 20.5076C140.343 18.1495 141.181 16.2689 142.856 14.8676C144.532 13.4664 146.548 12.7639 148.908 12.7639C151.017 12.7639 152.873 13.2802 154.474 14.309C156.074 15.3396 157.322 16.7722 158.217 18.6086L153.897 21.1031C152.855 18.8685 151.19 17.7512 148.908 17.7512C147.84 17.7512 147.003 17.9927 146.395 18.4776C145.786 18.9607 145.482 19.5894 145.482 20.3583C145.482 21.1769 145.823 21.8424 146.505 22.3495C147.187 22.8583 148.496 23.4115 150.434 24.007C151.229 24.2559 151.83 24.4476 152.239 24.5841C152.649 24.7205 153.207 24.9325 153.915 25.2165C154.623 25.5023 155.169 25.7696 155.554 26.0166C155.94 26.2656 156.378 26.6011 156.876 27.0215C157.372 27.4437 157.752 27.877 158.012 28.325C158.272 28.7712 158.497 29.3114 158.683 29.9457C158.869 30.578 158.961 31.2676 158.961 32.0125C158.961 34.4204 158.086 36.3323 156.336 37.7465C154.586 39.1606 152.307 39.8686 149.503 39.8686Z" fill="#964320"/>
<path d="M172.476 34.4315H183.459V39.3469H167.337V13.2839H183.273V18.1993H172.476V23.7471H182.344V28.5869H172.476V34.4315Z" fill="#964320"/>
<path d="M207.363 13.2839H212.501V39.3469H208.593L197.423 23.4115V39.3469H192.285V13.2839H196.194L207.363 29.1824V13.2839Z" fill="#964320"/>
<path d="M231.044 39.8686C228.463 39.8686 226.291 39.2915 224.528 38.1373C222.766 36.9832 221.525 35.4142 220.806 33.4266L225.199 30.8583C226.217 33.5151 228.216 34.8426 231.193 34.8426C232.633 34.8426 233.688 34.5826 234.359 34.0608C235.028 33.5391 235.364 32.8827 235.364 32.0881C235.364 31.1699 234.954 30.4564 234.136 29.9475C233.317 29.4386 231.851 28.8855 229.742 28.29C228.575 27.9433 227.589 27.5949 226.783 27.2464C225.975 26.8998 225.17 26.4333 224.362 25.8507C223.555 25.2681 222.941 24.5288 222.518 23.6345C222.096 22.7403 221.886 21.6986 221.886 20.5076C221.886 18.1495 222.723 16.2689 224.399 14.8676C226.075 13.4664 228.09 12.7639 230.45 12.7639C232.559 12.7639 234.416 13.2802 236.016 14.309C237.617 15.3396 238.865 16.7722 239.759 18.6086L235.439 21.1031C234.396 18.8685 232.733 17.7512 230.45 17.7512C229.383 17.7512 228.546 17.9927 227.937 18.4776C227.329 18.9607 227.025 19.5894 227.025 20.3583C227.025 21.1769 227.366 21.8424 228.048 22.3495C228.73 22.8583 230.039 23.4115 231.977 24.007C232.771 24.2559 233.373 24.4476 233.782 24.5841C234.191 24.7205 234.75 24.9325 235.458 25.2165C236.166 25.5023 236.712 25.7696 237.097 26.0166C237.482 26.2656 237.921 26.6011 238.419 27.0215C238.915 27.4437 239.295 27.877 239.555 28.325C239.815 28.7712 240.038 29.3114 240.224 29.9457C240.41 30.578 240.502 31.2676 240.502 32.0125C240.502 34.4204 239.626 36.3323 237.877 37.7465C236.127 39.1606 233.848 39.8686 231.044 39.8686Z" fill="#964320"/>
<path d="M254.017 34.4315H265V39.3469H248.878V13.2839H264.814V18.1993H254.017V23.7471H263.885V28.5869H254.017V34.4315Z" fill="#964320"/>
</svg>
