<?xml version="1.0" encoding="utf-8"?>
<!-- Generator: Adobe Illustrator 23.0.1, SVG Export Plug-In . SVG Version: 6.00 Build 0)  -->
<svg version="1.1" id="Layer_1" xmlns="http://www.w3.org/2000/svg" xmlns:xlink="http://www.w3.org/1999/xlink" x="0px" y="0px"
	 viewBox="0 0 114.5 114.5" style="enable-background:new 0 0 114.5 114.5;" xml:space="preserve">
<style type="text/css">
	.st0{fill:#5F9441;}
</style>
<g>
	<path class="st0" d="M59.7,67.7c0,9.7,7.9,17.6,17.6,17.6S95,77.4,95,67.7c0-1.8-0.2-3.4-0.8-5.1c0.5-1.6,0.8-3.3,0.8-5.1
		c0-1.6-0.2-3.2-0.7-4.7c0.4-1.5,0.7-3.1,0.7-4.8c0-4.8-2-9.5-5.5-12.8c-0.5-0.4-1.2-0.4-1.6,0c-0.4,0.5-0.4,1.2,0,1.6
		c3.1,2.9,4.8,6.9,4.8,11.2c0,8.5-6.9,15.3-15.3,15.3S62,56.3,62,47.9s6.9-15.3,15.3-15.3c2.2,0,4.3,0.4,6.3,1.3
		c0.6,0.3,1.3,0,1.5-0.6c0.3-0.6,0-1.3-0.6-1.5c-2.3-1-4.7-1.5-7.2-1.5c-9.7,0-17.6,7.9-17.6,17.6c0,1.6,0.2,3.2,0.6,4.7
		c-0.4,1.5-0.7,3.1-0.6,4.8c0,1.8,0.3,3.5,0.8,5.1C60,64.2,59.7,65.9,59.7,67.7z M77.3,65.5c6.5,0,12.3-3.6,15.3-8.9
		c0,0.3,0,0.5,0,0.8c0,8.5-6.9,15.3-15.3,15.3S62,65.8,62,57.4c0-0.3,0-0.5,0-0.8C65.1,61.9,70.8,65.5,77.3,65.5z M77.3,75
		c6.5,0,12.2-3.5,15.3-8.8c0,0.5,0.1,1,0.1,1.4c0,8.5-6.9,15.3-15.3,15.3S62,76.1,62,67.7c0-0.5,0-1,0.1-1.4
		C65.1,71.5,70.8,75,77.3,75L77.3,75z"/>
	<path class="st0" d="M50.4,25.3l0.9-1.4c1.2-1.8,0.7-4.2-1.1-5.3c-0.9-0.6-1.9-0.8-2.9-0.6c-1,0.2-1.9,0.8-2.4,1.6l-0.7,1
		c-2.3-1-4.7-1.6-7.3-1.6c-9.7,0-17.6,7.9-17.6,17.6c0,1.8,0.3,3.5,0.8,5.2c-0.5,1.7-0.8,3.4-0.8,5.2c0,1.8,0.3,3.5,0.8,5.1
		c-0.5,1.7-0.8,3.4-0.8,5.1c0,1.8,0.3,3.5,0.8,5.1c-0.5,1.7-0.8,3.4-0.8,5.1c0,9.7,7.9,17.6,17.6,17.6s17.6-7.9,17.6-17.6
		c0-1.8-0.3-3.5-0.8-5.1c0.5-1.6,0.8-3.3,0.8-5.1c0-1.8-0.3-3.5-0.8-5.1c0.5-1.6,0.8-3.3,0.8-5.1c0-1.8-0.3-3.5-0.8-5.2
		c0.5-1.6,0.8-3.4,0.8-5.2C54.6,32.5,53.1,28.5,50.4,25.3L50.4,25.3z M47.8,20.3c0.4-0.1,0.8,0,1.2,0.2c0.7,0.5,0.9,1.4,0.4,2.1
		L37.9,40.1c-0.3,0.4-0.8,0.7-1.3,0.7c0,0,0,0,0,0c-0.4,0-0.9-0.2-1.2-0.5l-4.7-5.5c-0.6-0.6-0.5-1.6,0.2-2.2
		c0.6-0.5,1.6-0.5,2.2,0.2l2.1,2.5c0.3,0.3,0.7,0.5,1.2,0.5c0.5,0,0.9-0.3,1.1-0.7l9.3-14.1C47.1,20.6,47.4,20.4,47.8,20.3
		L47.8,20.3z M37,21.4c2.1,0,4.1,0.4,6,1.2l-6.7,10.2l-1.4-1.6c-1.4-1.6-3.8-1.8-5.4-0.4c-1.6,1.4-1.8,3.8-0.4,5.4l4.7,5.5
		c0.7,0.9,1.8,1.3,2.9,1.3h0c1.3,0,2.5-0.6,3.2-1.7l9.2-14c2.1,2.7,3.2,6,3.2,9.4c0,8.5-6.9,15.3-15.3,15.3s-15.3-6.9-15.3-15.3
		S28.5,21.4,37,21.4z M52.3,67.6C52.3,76.1,45.4,83,37,83s-15.3-6.9-15.3-15.3c0-0.5,0-1,0.1-1.4C24.8,71.5,30.5,75,37,75
		c6.5,0,12.2-3.5,15.3-8.8C52.3,66.7,52.3,67.2,52.3,67.6z M52.3,47.1c0,8.5-6.9,15.3-15.3,15.3c-1.3,0-2.7-0.2-3.9-0.5
		c-0.6-0.2-1.2,0.2-1.4,0.8c-0.2,0.6,0.2,1.2,0.8,1.4c1.5,0.4,3,0.6,4.5,0.6c6.5,0,12.2-3.5,15.3-8.8c0,0.5,0.1,1,0.1,1.4
		c0,8.5-6.9,15.3-15.3,15.3s-15.3-6.9-15.3-15.3c0-0.5,0-1,0.1-1.4c1.3,2.3,3.2,4.3,5.4,5.8c0.5,0.4,1.2,0.2,1.6-0.3
		c0.4-0.5,0.2-1.2-0.3-1.6c-4.2-2.9-6.8-7.6-6.8-12.7c0-0.5,0-1,0.1-1.5c3.1,5.3,8.7,8.8,15.2,8.8c6.5,0,12.2-3.5,15.2-8.8
		C52.3,46.1,52.3,46.6,52.3,47.1L52.3,47.1z"/>
	<path class="st0" d="M51.9,87.2H22c-1.5,0-2.7,1.2-2.7,2.7v4c0,1.5,1.2,2.7,2.7,2.7h29.9c1.5,0,2.7-1.2,2.7-2.7v-4
		C54.6,88.4,53.4,87.2,51.9,87.2z M52.3,93.9c0,0.2-0.2,0.4-0.4,0.4H22c-0.2,0-0.4-0.2-0.4-0.4v-4c0-0.2,0.2-0.4,0.4-0.4h29.9
		c0.2,0,0.4,0.2,0.4,0.4V93.9z"/>
	<path class="st0" d="M92.5,87.2H62.6c-1.5,0-2.7,1.2-2.7,2.7v4c0,1.5,1.2,2.7,2.7,2.7H79c0.6,0,1.2-0.5,1.2-1.2
		c0-0.6-0.5-1.2-1.2-1.2H62.6c-0.2,0-0.4-0.2-0.4-0.4v-4c0-0.2,0.2-0.4,0.4-0.4h29.9c0.2,0,0.4,0.2,0.4,0.4v4c0,0.2-0.2,0.4-0.4,0.4
		H84c-0.6,0-1.2,0.5-1.2,1.2c0,0.6,0.5,1.2,1.2,1.2h8.4c1.5,0,2.7-1.2,2.7-2.7v-4C95.2,88.4,94,87.2,92.5,87.2z"/>
	<path class="st0" d="M80.3,39.3l-3,3l-3-3c-1.5-1.5-3.9-1.5-5.4-0.1c-0.7,0.7-1.1,1.7-1.2,2.7c0,1.1,0.4,2.1,1.1,2.8l2.9,2.9
		L69,50.6c-1.5,1.5-1.5,4-0.1,5.5c0.7,0.7,1.7,1.1,2.7,1.1c1,0,2-0.4,2.7-1.1l3-3l3,3c0.7,0.7,1.7,1.1,2.7,1.1c1,0,2-0.4,2.7-1.1
		c1.5-1.5,1.4-3.9-0.1-5.5l-2.9-2.9l2.9-2.9c0.7-0.7,1.2-1.8,1.1-2.8c0-1-0.4-2-1.2-2.7C84.2,37.8,81.8,37.9,80.3,39.3L80.3,39.3z
		 M84.1,40.9c0.3,0.3,0.4,0.7,0.4,1.1c0,0.4-0.2,0.9-0.5,1.2l-3.5,3.5c-0.6,0.6-0.6,1.5,0,2.1l3.5,3.5c0.6,0.6,0.6,1.6,0.1,2.2
		c-0.3,0.3-0.7,0.5-1.1,0.5c-0.4,0-0.8-0.2-1.1-0.4l-3.6-3.6c-0.3-0.3-0.7-0.4-1-0.4s-0.7,0.1-1,0.4l-3.6,3.6
		c-0.3,0.3-0.7,0.4-1.1,0.4c-0.4,0-0.8-0.2-1.1-0.5c-0.6-0.6-0.6-1.6,0.1-2.2l3.5-3.5c0.6-0.6,0.6-1.5,0-2.1l-3.5-3.5
		c-0.3-0.3-0.5-0.7-0.5-1.2c0-0.4,0.2-0.8,0.4-1.1c0.6-0.6,1.6-0.6,2.1,0l3.6,3.6c0.6,0.6,1.5,0.6,2.1,0l3.6-3.6
		C82.5,40.4,83.5,40.4,84.1,40.9L84.1,40.9z"/>
</g>
</svg>
