<?xml version="1.0" encoding="utf-8"?>
<!-- Generator: Adobe Illustrator 23.0.1, SVG Export Plug-In . SVG Version: 6.00 Build 0)  -->
<svg version="1.1" id="Layer_1" xmlns="http://www.w3.org/2000/svg" xmlns:xlink="http://www.w3.org/1999/xlink" x="0px" y="0px"
	 viewBox="0 0 114.5 114.5" style="enable-background:new 0 0 114.5 114.5;" xml:space="preserve">
<style type="text/css">
	.st0{fill:#5F9441;}
</style>
<g>
	<path class="st0" d="M97.5,48.2c0.1-0.1,0.1-0.2,0.1-0.4c1-4.2-1-7-2.7-8.3c-0.4-3.1-3.3-5.1-5.8-6.1c-0.2-3-1.4-5.3-3.3-7.1
		C82.6,23.4,78,23,75.7,23c0,0,0,0-0.1,0c-2.2-3.8-7.3-3.9-10.2-3.4c-1.7-0.6-3.5-1.1-5.2-1.4c-1-0.2-1.9,0.4-2.1,1.4
		c-0.2,1,0.4,1.9,1.4,2.1c1.7,0.3,3.4,0.8,5.2,1.4c0.3,0.1,0.7,0.1,1,0.1c0.1,0,5.9-1.3,7.2,2.3c0.3,0.8,1,1.2,1.8,1.2
		c0.1,0,5.6-0.5,8.8,2.4c1.1,1,1.8,2.3,2.1,4c-2.4,0.1-6.1,0.9-8,4.8c-0.4,0.9-0.1,1.9,0.8,2.4c0.3,0.1,0.5,0.2,0.8,0.2
		c0.6,0,1.3-0.4,1.6-1c1.6-3.2,5.7-2.9,6.4-2.8c0.7,0.2,4.5,1.6,4.4,4c0,0.7,0.3,1.4,1,1.7c0,0,0.6,0.4,1.2,1.1
		c0.7,1,0.9,2.2,0.7,3.5l-0.1,0.2c-2.7,0.3-6.9,2-7.4,7.1c-0.1,1,0.6,1.8,1.6,1.9c0.1,0,0.1,0,0.2,0c0.9,0,1.7-0.7,1.7-1.6
		c0.4-3.2,3.1-3.9,4.3-4c7.7,5.7,2.3,18.9,1.9,19.7c-1.9,3.7-4.3,5.5-7.3,5.7c-1.3-1.1-4.7-3.5-10.6-4.9c-0.9-0.2-1.9,0.4-2.1,1.3
		c-0.2,0.9,0.4,1.9,1.3,2.1c5,1.2,7.9,3.2,9,4c0,0.5-0.1,1-0.2,1.4c-1.3,5-8,7.6-15,5.8c-1.2-0.3-2.3-0.7-3.4-1.2
		c-0.5-0.2-1.1-0.2-1.6,0.1c-0.5,0.3-0.8,0.8-0.9,1.4c-0.2,2.3-0.1,4.5,0.3,6.6l-4.6,0.8c-0.2-0.7-0.4-1.5-0.6-2.4
		c-1-4.3-2.5-10.5-6.9-15.5c3.7-0.9,7.2-1.5,10.5-1.8c1-0.1,1.7-0.9,1.6-1.9c-0.1-1-0.9-1.7-1.9-1.6c-4.4,0.4-9.1,1.2-14,2.6
		c-4.5,0.6-7.6,0.4-8,0.3c-7.6-1.1-9.8-5.8-9.3-9.4c0.1-0.6-0.1-1.2-0.6-1.5c-0.4-0.4-1-0.5-1.6-0.4l-1.3,0.3
		c-2.2-0.1-7.8-1-10.3-3.9c-1.1-1.3-1.5-2.8-1.3-4.7c0.1-0.7-0.3-1.4-0.9-1.8c0,0-0.8-0.5-0.9-1.3c-0.2-0.9,0.4-2.1,1-2.9
		c0.3-0.5,0.4-1.1,0.2-1.6c0,0-1.3-3.8,0.2-6.9c0.8-1.7,2.4-3,4.7-3.8c0.7-0.2,1.1-0.8,1.2-1.5c0,0,0.2-2.3,1.9-3.5
		c1.1-0.8,2.7-1.1,4.8-0.6c0.5,0.1,1,0,1.4-0.3c0.4-0.3,0.7-0.7,0.7-1.2c0,0,0.8-3.7,7.7-3.8c1,1.4,3.3,5.2,1.6,8.5
		c-0.4,0.9-0.1,1.9,0.8,2.4c0.3,0.1,0.5,0.2,0.8,0.2c0.6,0,1.3-0.4,1.6-1c0.6-1.2,0.9-2.5,1-3.7c1-0.4,2.4-0.8,3.6-0.5
		c0.8,0.2,1.4,0.8,1.8,1.7c0.3,0.6,0.9,1,1.6,1c0.3,0,0.5-0.1,0.8-0.2c0.9-0.4,1.2-1.5,0.8-2.4c-0.9-1.8-2.3-3-4-3.5
		c-1.8-0.5-3.7-0.2-5.1,0.3c-0.5-1.6-1.2-2.9-1.8-3.9c0.8-0.4,2-0.8,3.3-1.1c0.9-0.2,1.5-1.2,1.3-2.2c-0.2-0.9-1.2-1.5-2.2-1.3
		c-2.8,0.7-4.7,1.7-5.5,2.2c-7.1,0-9.9,3.1-10.9,5.1c-2.5-0.2-4.5,0.3-6.2,1.5c-1.9,1.4-2.7,3.5-3,4.8c-2.7,1.1-4.6,2.9-5.8,5.2
		c-1.6,3.4-1,7.1-0.6,8.7c-1.1,1.7-1.4,3.4-1.1,5c0.3,1.3,1.1,2.3,1.7,2.9c-0.1,2.4,0.6,4.6,2.2,6.4c3.8,4.4,11.4,5,12.9,5.1
		c0.4,4.9,4.1,9.8,12.4,11c0,0,0.1,0,0.1,0c0.1,0,1,0.1,2.5,0.1c1.4,0,3.3-0.1,5.6-0.4c4.9,4.6,6.4,10.8,7.5,15.4
		c0.4,1.7,0.8,3.1,1.2,4.2c0.3,0.7,0.9,1.1,1.6,1.1c0.1,0,0.2,0,0.3,0l8-1.3c0.5-0.1,0.9-0.4,1.2-0.8c0.3-0.4,0.3-0.9,0.2-1.4
		c-0.4-1.5-0.7-3.1-0.7-4.8c0.5,0.2,1,0.3,1.6,0.5c4.2,1.1,8.5,0.8,12.1-0.7c3.8-1.6,6.3-4.3,7.2-7.7c0.1-0.5,0.2-1,0.3-1.4
		c3-0.4,6.6-2.2,9.4-7.6c0,0,0-0.1,0-0.1c0.1-0.2,1.9-4.2,2.4-9.2C102.7,56.2,101.1,51.4,97.5,48.2z"/>
	<path class="st0" d="M53.3,43.1c0,0.1,0.5,2.5,2.2,4.9c0.4,0.6,0.9,1.2,1.5,1.7c-0.3,1.8-3.1,2.8-3.2,2.8c-0.9,0.3-1.4,1.3-1.1,2.2
		c0.2,0.7,0.9,1.2,1.7,1.2c0.2,0,0.4,0,0.6-0.1c1.6-0.5,4-1.9,5-4.1c1.4,0.6,3,1,5,1c0.1,0,0.3,0,0.4,0c1,0,1.7-0.8,1.7-1.8
		c0-1-0.8-1.7-1.8-1.7c0,0,0,0,0,0c-7.1,0.2-8.5-6.5-8.5-6.8c-0.2-1-1.1-1.6-2-1.4C53.8,41.2,53.1,42.1,53.3,43.1z"/>
	<path class="st0" d="M74.8,58.5c3.1-5.3,1.9-9.5,0.3-12c-1.6-2.7-4-4.1-4.1-4.1c-0.8-0.5-1.9-0.2-2.4,0.6c-0.5,0.8-0.2,1.9,0.6,2.4
		c0,0,1.8,1.1,3,3c1.5,2.5,1.3,5.3-0.4,8.3c-0.5,0.8-0.2,1.9,0.7,2.4c0.3,0.2,0.6,0.2,0.9,0.2C73.9,59.4,74.5,59.1,74.8,58.5z"/>
	<path class="st0" d="M93.5,62.7c0.8-0.6,1-1.7,0.4-2.5s-1.7-1-2.5-0.4c-1.7,1.2-3.3,1.7-4.6,1.4c-2.1-0.5-3.2-2.6-3.3-2.6
		c-0.5-0.9-1.5-1.2-2.4-0.7c-0.9,0.5-1.2,1.5-0.7,2.4c0.1,0.1,1.6,3,4.6,4.2c-0.5,2.2-0.9,6,2.3,8.6c0.3,0.3,0.7,0.4,1.1,0.4
		c0.5,0,1-0.2,1.4-0.6c0.6-0.7,0.5-1.9-0.2-2.5c-1.9-1.6-1.4-4.3-1-5.5C90.2,64.5,91.8,63.8,93.5,62.7z"/>
	<path class="st0" d="M41.6,51.3c-0.1-1-1-1.6-2-1.5c-1,0.1-1.6,1-1.5,2c0.3,2.4-1.6,4.2-2.7,5c-2.8-1.4-6-0.9-6.1-0.8
		c-1,0.2-1.6,1.1-1.4,2c0.2,1,1.1,1.6,2,1.4c0,0,3-0.5,4.8,1.1c1,0.9,1.5,2.4,1.5,4.4c0,1,0.7,1.8,1.7,1.8c0,0,0,0,0,0
		c1,0,1.7-0.8,1.8-1.7c0.1-2.4-0.4-4.3-1.5-5.8C39.8,57.7,42.1,55.1,41.6,51.3z"/>
	<path class="st0" d="M25,42.1c-0.2,0.5-0.5,0.9-0.8,1.2c-1,1-2.2,1.3-2.2,1.4c-0.9,0.3-1.5,1.2-1.2,2.2c0.2,0.8,0.9,1.3,1.7,1.3
		c0.2,0,0.3,0,0.5-0.1c0.1,0,2.3-0.6,4-2.5c1.2,0.9,2.6,1.3,4.1,1.3c0.4,0,0.9,0,1.3-0.1c2-0.3,3.5-1.3,3.7-1.4
		c0.8-0.5,1.1-1.6,0.5-2.4c-0.5-0.8-1.6-1.1-2.4-0.5c0,0-1,0.6-2.3,0.8c-1.3,0.2-2.3-0.1-3.1-0.9c0.4-1.5,0.4-3.2-0.2-5.1
		c-0.3-0.9-1.2-1.5-2.2-1.2c-0.9,0.3-1.5,1.2-1.2,2.2C25.5,39.7,25.5,41,25,42.1C25,42,25,42.1,25,42.1z"/>
	<path class="st0" d="M66.3,27.1c-3-1.8-6.4-0.9-6.5-0.8c-0.9,0.3-1.5,1.2-1.2,2.2c0.3,0.9,1.2,1.5,2.2,1.2c0,0,2.1-0.5,3.8,0.4
		c1,0.6,1.7,1.7,2,3.2c0.2,0.8,0.9,1.4,1.7,1.4c0.1,0,0.3,0,0.4,0c0.9-0.2,1.5-1.2,1.3-2.1C69.3,30,68.1,28.2,66.3,27.1z"/>
	<path class="st0" d="M59.9,60.3c-1.3,2.2-3.1,3.3-5.4,3.4c-1.9,0.1-3.4-0.5-3.4-0.5c-0.9-0.4-1.9,0.1-2.3,1c-0.4,0.9,0.1,1.9,1,2.3
		c0.2,0.1,2,0.8,4.4,0.8c0.1,0,0.3,0,0.4,0c2.5-0.1,6-1.1,8.4-5.2c0.5-0.8,0.2-1.9-0.6-2.4C61.4,59.2,60.4,59.5,59.9,60.3z"/>
	<path class="st0" d="M72.6,70.7c-0.4-0.6-1.2-0.9-1.9-0.7c-0.7,0.2-1.2,0.8-1.3,1.5c-0.1,0.7,0.3,1.5,1,1.8c0.6,0.3,1.4,0.2,2-0.3
		C73,72.4,73.1,71.4,72.6,70.7z"/>
	<path class="st0" d="M51.3,20c0.3,0.7,1,1.1,1.7,1.1c0.7,0,1.4-0.5,1.6-1.2c0.2-0.7,0-1.5-0.5-1.9c-0.6-0.5-1.5-0.5-2.1-0.1
		C51.3,18.3,51,19.2,51.3,20z"/>
</g>
</svg>
