<?xml version="1.0" encoding="utf-8"?>
<!-- Generator: Adobe Illustrator 23.0.1, SVG Export Plug-In . SVG Version: 6.00 Build 0)  -->
<svg version="1.1" id="Layer_1" xmlns="http://www.w3.org/2000/svg" xmlns:xlink="http://www.w3.org/1999/xlink" x="0px" y="0px"
	 viewBox="0 0 114.5 114.5" style="enable-background:new 0 0 114.5 114.5;" xml:space="preserve">
<style type="text/css">
	.st0{fill:#5F9441;}
</style>
<g>
	<g>
		<path class="st0" d="M96.9,25.4H39.1c-2.3,0-2.3,3.6,0,3.6h57.8c1,0,1.8,0.8,1.8,1.8v42.1c0,1-0.8,1.8-1.8,1.8H65.6
			c-0.5,0-1.1,0.2-1.4,0.7L57,84.5l-7.6-9.2c-0.3-0.4-0.8-0.6-1.4-0.6H17.6c-1,0-1.8-0.8-1.8-1.8V30.8c0-1,0.8-1.8,1.8-1.8h6.8
			c2.3,0,2.3-3.6,0-3.6h-6.8c-3,0-5.4,2.4-5.4,5.4v42.1c0,3,2.4,5.4,5.4,5.4h29.6l8.5,10.2c0.7,0.9,2.1,0.8,2.8,0l8-10.2h30.4
			c3,0,5.4-2.4,5.4-5.4V30.8C102.2,27.8,99.8,25.4,96.9,25.4L96.9,25.4z"/>
		<path class="st0" d="M22.2,48.4c-0.2,0.6-0.1,1.2,0.3,1.7l3.5,4.2l-0.3,5.4c-0.3,4.3,6.1-0.3,7.5-0.2c1.4,0,7.8,4.4,7.5,0.2
			l-0.3-5.4l3.5-4.2c0.8-1,0.3-2.5-0.9-2.9l-5.3-1.4l-2.9-4.6c-0.7-1.1-2.3-1.1-3,0l-2.9,4.6l-5.3,1.4
			C22.8,47.3,22.4,47.8,22.2,48.4L22.2,48.4z M30.3,49.1c1.3-0.3,2.2-2.5,2.9-3.6c0.7,1,1.5,3.3,2.9,3.6l3.2,0.8l-2.1,2.6
			c-0.3,0.3-0.4,0.8-0.4,1.3l0.2,3.3l-3.1-1.2c-0.4-0.2-0.9-0.2-1.3,0l-3.1,1.2l0.2-3.3c0-0.5-0.1-0.9-0.4-1.3L27,49.9L30.3,49.1z"
			/>
		<path class="st0" d="M68,48.4c-0.2-0.6-0.7-1-1.3-1.2l-5.3-1.4l-2.9-4.6c-0.7-1.1-2.3-1.1-3,0l-2.9,4.6l-5.3,1.4
			c-0.6,0.2-1.1,0.6-1.3,1.2c-0.2,0.6-0.1,1.2,0.3,1.7l3.5,4.2l-0.3,5.4c-0.3,4.3,6.1-0.3,7.5-0.2c1.4,0,7.8,4.4,7.5,0.2l-0.3-5.4
			l3.5-4.2C68.1,49.6,68.2,48.9,68,48.4L68,48.4z M61,52.5c-0.3,0.3-0.4,0.8-0.4,1.3l0.2,3.3c-1.1-0.4-2.5-1.4-3.8-1.4
			c-1.2,0-2.6,0.9-3.8,1.4l0.2-3.3c0-0.5-0.1-0.9-0.4-1.3L51,49.9l3.2-0.8c1.3-0.3,2.2-2.5,2.9-3.6c0.7,1,1.5,3.3,2.9,3.6l3.2,0.8
			L61,52.5z"/>
		<path class="st0" d="M92,48.4c-0.2-0.6-0.7-1-1.3-1.2l-5.3-1.4l-2.9-4.6c-0.7-1.1-2.3-1.1-3,0l-2.9,4.6l-5.3,1.4
			c-1.2,0.3-1.7,1.9-0.9,2.9l3.5,4.2l-0.3,5.4c-0.3,4.3,6.1-0.3,7.5-0.2c1.4,0,7.8,4.4,7.5,0.2l-0.3-5.4l3.5-4.2
			C92,49.6,92.2,48.9,92,48.4L92,48.4z M85,52.5c-0.3,0.3-0.4,0.8-0.4,1.3l0.2,3.3l-3.1-1.2c-0.4-0.2-0.9-0.2-1.3,0l-3.1,1.2
			l0.2-3.3c0-0.5-0.1-0.9-0.4-1.3l-2.1-2.6l3.2-0.8c1.3-0.3,2.2-2.5,2.9-3.6c0.7,1,1.5,3.3,2.9,3.6l3.2,0.8L85,52.5z"/>
		<path class="st0" d="M30.8,28.7c1.3,0.9,3.1-0.4,2.7-2c-0.2-0.7-0.9-1.3-1.6-1.3c-0.8,0-1.5,0.4-1.8,1.1
			C29.9,27.3,30.1,28.2,30.8,28.7z"/>
	</g>
</g>
</svg>
