<?xml version="1.0" encoding="utf-8"?>
<!-- Generator: Adobe Illustrator 23.0.1, SVG Export Plug-In . SVG Version: 6.00 Build 0)  -->
<svg version="1.1" id="Layer_1" xmlns="http://www.w3.org/2000/svg" xmlns:xlink="http://www.w3.org/1999/xlink" x="0px" y="0px"
	 viewBox="0 0 114.5 114.5" style="enable-background:new 0 0 114.5 114.5;" xml:space="preserve">
<style type="text/css">
	.st0{fill:#5F9441;}
</style>
<g>
	<path class="st0" d="M88.1,89.3c-2.7,0-4.9,2.2-4.9,4.9s2.2,4.9,4.9,4.9c2.7,0,4.9-2.2,4.9-4.9C92.9,91.5,90.8,89.3,88.1,89.3z
		 M88.1,96.6c-1.3,0-2.4-1.1-2.4-2.4s1.1-2.4,2.4-2.4c1.3,0,2.4,1.1,2.4,2.4S89.4,96.6,88.1,96.6z"/>
	<path class="st0" d="M88.1,66.5c-3.3,0-6,2.7-6,6c0,3.3,2.7,6,6,6c3.3,0,6-2.7,6-6C94.1,69.2,91.4,66.5,88.1,66.5z M88.1,76
		c-2,0-3.5-1.6-3.5-3.5c0-2,1.6-3.5,3.5-3.5c2,0,3.5,1.6,3.5,3.5C91.6,74.4,90,76,88.1,76z"/>
	<path class="st0" d="M48.9,96.6H34.6c-9.2,0-16.7-7.5-16.7-16.7v-2.4c0-9.2,7.5-16.7,16.7-16.7H75c5.9,0,10.6-4.8,10.6-10.6
		S80.9,39.5,75,39.5h-2.6c-0.7,0-1.2,0.5-1.2,1.2s0.5,1.2,1.2,1.2H75c4.5,0,8.2,3.7,8.2,8.2s-3.7,8.2-8.2,8.2H34.6
		C24,58.4,15.4,67,15.4,77.5v2.4c0,10.6,8.6,19.2,19.2,19.2h14.3c0.7,0,1.2-0.5,1.2-1.2S49.6,96.6,48.9,96.6L48.9,96.6z"/>
	<path class="st0" d="M20.6,31.7v6.6c0,1.9,1.6,3.5,3.5,3.5s3.5-1.6,3.5-3.5v-6.6c3-1.3,5-4.3,5-7.8c0-4.7-3.8-8.5-8.5-8.5
		s-8.5,3.8-8.5,8.5C15.6,27.4,17.6,30.4,20.6,31.7z M25.1,38.3c0,0.6-0.5,1-1,1c-0.6,0-1-0.5-1-1v-5.9c0.3,0,0.7,0.1,1,0.1
		s0.7,0,1-0.1V38.3z M24.1,17.9c3.3,0,6.1,2.7,6.1,6.1S27.4,30,24.1,30S18,27.3,18,23.9S20.7,17.9,24.1,17.9z"/>
	<path class="st0" d="M95.9,64.7c-1.4-1.4-3-2.4-4.8-2.9c2.4-3.3,3.8-7.3,3.8-11.7c0-11-8.9-19.9-19.9-19.9H37.3
		c-3.2,0-5.8,2.6-5.8,5.8s2.6,5.8,5.8,5.8h29.4c0.7,0,1.2-0.5,1.2-1.2c0-0.7-0.5-1.2-1.2-1.2H37.3c-1.9,0-3.4-1.5-3.4-3.4
		c0-1.9,1.5-3.4,3.4-3.4H75c9.6,0,17.4,7.8,17.4,17.4c0,4.3-1.6,8.2-4.1,11.2c0,0,0,0-0.1,0c-3-0.1-5.8,1.1-7.9,3.2
		c-0.8,0.8-1.5,1.7-2,2.7c-1.1,0.2-2.2,0.3-3.3,0.3H35.8c-6.1,0-11.1,5-11.1,11.1c0,6.1,5,11.1,11.1,11.1h39.6
		c1.9,0,3.4,1.5,3.4,3.4c0,1.9-1.5,3.4-3.4,3.4H54.6c-0.7,0-1.2,0.5-1.2,1.2s0.5,1.2,1.2,1.2h20.8c3.2,0,5.8-2.6,5.8-5.8
		s-2.6-5.8-5.8-5.8H35.8c-4.8,0-8.7-3.9-8.7-8.7c0-4.8,3.9-8.7,8.7-8.7H75c0.8,0,1.6,0,2.3-0.1c-0.2,0.8-0.3,1.6-0.3,2.5
		c0,4,2.2,7.8,5.7,9.7c0.4,0.2,0.8,0.6,1.1,1l2.2,3.4c0.5,0.7,1.2,1.1,2.1,1.1h0c0.8,0,1.6-0.4,2.1-1.1l2.2-3.4
		c0.3-0.4,0.7-0.8,1.1-1c3.5-1.9,5.7-5.7,5.7-9.7C99.1,69.5,98,66.8,95.9,64.7L95.9,64.7z M92.2,80c-0.8,0.4-1.4,1.1-1.9,1.8
		l-2.2,3.4l-2.2-3.4c-0.5-0.8-1.2-1.4-1.9-1.8c-2.8-1.5-4.5-4.4-4.4-7.6c0-2.3,0.9-4.5,2.6-6.1c1.6-1.6,3.8-2.5,6-2.5
		c0,0,0.1,0,0.1,0c4.7,0.1,8.5,3.9,8.5,8.6C96.7,75.6,95,78.5,92.2,80L92.2,80z"/>
	<path class="st0" d="M79.9,50.1c0-3.2-2.6-5.9-5.9-5.9c-3.2,0-5.9,2.6-5.9,5.9c0,3.2,2.6,5.9,5.9,5.9C77.3,56,79.9,53.4,79.9,50.1z
		 M70.6,50.1c0-1.9,1.5-3.4,3.4-3.4c1.9,0,3.4,1.5,3.4,3.4c0,1.9-1.5,3.4-3.4,3.4C72.2,53.6,70.6,52,70.6,50.1z"/>
	<path class="st0" d="M31,78.6c0,3.2,2.6,5.9,5.9,5.9c3.2,0,5.9-2.6,5.9-5.9c0-3.2-2.6-5.9-5.9-5.9C33.6,72.7,31,75.3,31,78.6
		L31,78.6z M40.3,78.6c0,1.9-1.5,3.4-3.4,3.4c-1.9,0-3.4-1.5-3.4-3.4s1.5-3.4,3.4-3.4C38.8,75.1,40.3,76.7,40.3,78.6z"/>
</g>
</svg>
