<?xml version="1.0" encoding="utf-8"?>
<!-- Generator: Adobe Illustrator 23.0.1, SVG Export Plug-In . SVG Version: 6.00 Build 0)  -->
<svg version="1.1" id="Layer_1" xmlns="http://www.w3.org/2000/svg" xmlns:xlink="http://www.w3.org/1999/xlink" x="0px" y="0px"
	 viewBox="0 0 114.5 114.5" style="enable-background:new 0 0 114.5 114.5;" xml:space="preserve">
<style type="text/css">
	.st0{fill:#5F9441;}
</style>
<g>
	<g>
		<g>
			<path class="st0" d="M78.8,31.7c-4.3-4.4-10.5-6.8-17.3-6.8c-13.1,0-23.7,10.6-23.7,23.7v24.1c0,10.2,5,16.6,12.9,16.6
				c11.3,0,15.1-8.1,17.1-12.4l0-0.1c2.1-4.4,4.7-6.2,7.5-8.1c4.8-3.3,9.7-6.8,9.8-20C85.3,41.8,83.1,36,78.8,31.7z M73.5,65.9
				c-2.9,2-6.1,4.3-8.6,9.5l0,0.1c-2,4.2-4.9,10.4-14,10.4c-6.1,0-9.5-4.8-9.5-13.2V48.6c0-11.2,9.1-20.3,20.3-20.3
				c5.9,0,11.2,2,14.9,5.8c3.6,3.6,5.5,8.7,5.4,14.5C81.7,60.1,77.9,62.8,73.5,65.9z"/>
		</g>
		<g>
			<path class="st0" d="M72,43.7c0.4,0.8,1.4,1.2,2.3,0.8c0.8-0.4,1.2-1.4,0.8-2.3c-0.7-1.4-1.6-2.6-2.7-3.7c-3-3-7.2-4.7-11.9-4.7
				c-4.3,0-8.6,2.1-11.7,5.8c-3.1,3.6-4.4,8.1-3.7,12.2c0.4,2.2,2.2,3,3.9,3.8c1.6,0.7,3.1,1.4,3.9,3.2c0.9,2,0.8,3.7-2.1,7.8
				c-0.5,0.8-0.4,1.8,0.4,2.4c0.3,0.2,0.6,0.3,1,0.3c0.5,0,1.1-0.2,1.4-0.7c2.8-3.9,4.2-7.1,2.4-11.1c-1.3-2.9-3.8-4.1-5.6-4.9
				c-0.9-0.4-1.9-0.9-2-1.3c-0.5-3.1,0.6-6.6,2.9-9.4c2.4-2.9,5.8-4.6,9.1-4.6c3.8,0,7.1,1.3,9.4,3.7C70.8,41.7,71.5,42.7,72,43.7z"
				/>
		</g>
		<g>
			<path class="st0" d="M75.1,47.6c-0.9,0-1.7,0.8-1.7,1.7c0,4.4-0.9,6.6-3.2,8.2c-0.8,0.5-1,1.6-0.4,2.4c0.3,0.5,0.9,0.7,1.4,0.7
				c0.3,0,0.7-0.1,1-0.3c4.1-2.9,4.7-7,4.7-11C76.8,48.3,76.1,47.6,75.1,47.6z"/>
		</g>
	</g>
</g>
</svg>
