<svg width="32" height="32" viewBox="0 0 32 32" fill="none" xmlns="http://www.w3.org/2000/svg">
<g clip-path="url(#clip0)">
<path d="M31.8254 22.0871C31.4167 21.2031 30.4156 20.7801 29.4969 21.1032L28.0809 21.6012L26.5656 20.2644C24.6167 18.5451 21.9516 17.9548 19.5083 18.5957V17.2773L22.2953 14.3951C22.4517 14.2334 22.6045 14.059 22.7494 13.8769C22.9105 13.6743 22.8769 13.3795 22.6743 13.2184C22.4717 13.0573 22.177 13.0909 22.0158 13.2934C21.8896 13.452 21.757 13.6035 21.6214 13.7436L19.2501 16.1959L18.2073 12.8839C17.8882 11.8703 18.1415 10.759 18.8683 9.98378L20.5524 8.18738C20.7079 8.02148 20.8421 7.83608 20.951 7.63631L21.9999 5.71344C22.0029 5.70782 22.0101 5.69463 22.0314 5.69295C22.0529 5.6917 22.0619 5.70313 22.0658 5.70819C23.3793 7.4073 23.7125 9.62274 22.9567 11.6345C22.8657 11.8768 22.9883 12.147 23.2306 12.238C23.4729 12.3291 23.7431 12.2065 23.8341 11.9641C24.705 9.64598 24.3211 7.093 22.8073 5.13495C22.6048 4.87307 22.287 4.73254 21.957 4.75872C21.6271 4.78497 21.3355 4.97411 21.177 5.26473L20.1282 7.1876C20.0572 7.3177 19.9698 7.43842 19.8685 7.54652L19.7016 7.72454C19.6947 7.41324 19.6554 7.10831 19.5832 6.81119C19.529 6.58868 19.3682 6.40884 19.1529 6.33005C18.9373 6.25119 18.698 6.28487 18.5128 6.42009L16.9257 7.5787C15.5546 8.57972 14.7649 10.1275 14.7594 11.8252C14.7538 13.5228 15.5332 15.0757 16.8978 16.0858L18.5708 17.3241V18.9066C18.2986 19.0171 18.0309 19.1437 17.7693 19.2873L13.6543 21.5438H13.3683C12.7235 20.967 11.8999 20.6515 11.0279 20.6515H5.17107C4.94525 20.2568 4.52078 19.9896 4.03439 19.9896H0.468643C0.209827 19.9896 0 20.1994 0 20.4583C0 20.7171 0.209827 20.9269 0.468643 20.9269H4.03458C4.23984 20.9269 4.40687 21.0939 4.40687 21.2992V22.6779C4.40687 22.9367 4.6167 23.1465 4.87551 23.1465C5.13433 23.1465 5.34415 22.9367 5.34415 22.6779V21.5888H11.028C11.7166 21.5888 12.3639 21.8569 12.8508 22.3438C12.9387 22.4317 13.0579 22.4811 13.1822 22.4811H18.9671C19.6353 22.4811 20.179 23.0247 20.179 23.693C20.179 24.3612 19.6353 24.9048 18.9671 24.9048H14.2761C14.0592 24.9048 13.8553 24.9893 13.7021 25.1426L12.8954 25.9493C12.7123 26.1323 12.7123 26.429 12.8954 26.612C12.9868 26.7035 13.1068 26.7493 13.2267 26.7493C13.3466 26.7493 13.4666 26.7035 13.5581 26.612L14.328 25.8421H18.967C19.5139 25.8421 20.0134 25.6364 20.3932 25.2988L29.8078 21.9878C30.2683 21.8258 30.7698 22.0378 30.9746 22.4808C31.1864 22.939 31.0012 23.4797 30.553 23.7118L20.3973 28.971C19.8028 29.2789 19.1346 29.4416 18.4652 29.4416H17.6462C17.3874 29.4416 17.1776 29.6515 17.1776 29.9103C17.1776 30.1691 17.3874 30.3789 17.6462 30.3789H18.4652C19.284 30.3789 20.1012 30.1798 20.8283 29.8034L30.9839 24.5442C31.8786 24.0806 32.2481 23.0015 31.8254 22.0871ZM15.6968 11.8281C15.7014 10.4319 16.3508 9.1589 17.4785 8.33559L18.7414 7.41361C18.7973 7.87907 18.7552 8.37077 18.6178 8.88053L18.1845 9.34274C17.2266 10.3646 16.8928 11.8293 17.3134 13.1653L18.1597 15.8534L17.4556 15.3322C16.3333 14.5016 15.6922 13.2243 15.6968 11.8281ZM18.9671 21.5436H15.6038L18.2201 20.109C20.7108 18.7431 23.8154 19.0881 25.9455 20.9673L27.0679 21.9575L21.0838 24.0621C21.1047 23.942 21.1162 23.8187 21.1162 23.6927C21.1162 22.5077 20.1521 21.5436 18.9671 21.5436Z" fill="black"/>
<path d="M15.6491 29.4413H9.72421C8.71838 29.4413 7.74473 29.0798 6.98253 28.4235L6.70678 28.186C6.62174 28.1128 6.5132 28.0725 6.40097 28.0725H5.34415V24.6762C5.34415 24.4173 5.13433 24.2075 4.87551 24.2075C4.61669 24.2075 4.40687 24.4173 4.40687 24.6762V28.4228C4.40687 28.6281 4.23984 28.7951 4.03458 28.7951H0.468643C0.209827 28.7951 0 29.0049 0 29.2637C0 29.5226 0.209827 29.7324 0.468643 29.7324H4.03458C4.54552 29.7324 4.98786 29.4376 5.20356 29.0098H6.22695L6.37086 29.1337C7.30308 29.9365 8.49399 30.3785 9.72415 30.3785H15.649C15.9079 30.3785 16.1177 30.1687 16.1177 29.9099C16.1177 29.6511 15.9079 29.4413 15.6491 29.4413Z" fill="black"/>
<path d="M12.5444 18.8372C12.6335 18.9156 12.7439 18.9542 12.8539 18.9542C12.9839 18.9542 13.1132 18.9004 13.2058 18.7952C13.3769 18.6009 13.358 18.3048 13.1638 18.1338C11.2441 16.4437 10.1431 14.0092 10.1431 11.4545C10.1431 8.89983 11.2441 6.46532 13.1638 4.77521C13.358 4.60418 13.3769 4.308 13.2058 4.11379C13.0347 3.91953 12.7387 3.90072 12.5444 4.07174C10.4227 5.93975 9.20581 8.6307 9.20581 11.4546C9.20581 14.2784 10.4227 16.9692 12.5444 18.8372Z" fill="black"/>
<path d="M24.9613 18.093C24.7682 18.2654 24.7514 18.5617 24.9237 18.7547C25.0163 18.8585 25.1446 18.9113 25.2735 18.9113C25.3845 18.9113 25.4961 18.872 25.5854 18.7922C27.6749 16.927 28.8734 14.2525 28.8734 11.4544C28.8734 8.65637 27.6749 5.98179 25.5854 4.11659C25.3923 3.94426 25.096 3.961 24.9237 4.15415C24.7514 4.34723 24.7682 4.64353 24.9613 4.81587C26.8518 6.50342 27.9361 8.92312 27.9361 11.4545C27.9361 13.9858 26.8518 16.4055 24.9613 18.093Z" fill="black"/>
<path d="M17.6662 2.66366C18.6945 2.50438 19.7632 2.52663 20.7843 2.72958C20.8152 2.7357 20.8459 2.7387 20.8762 2.7387C21.0952 2.7387 21.291 2.58436 21.3353 2.36135C21.3858 2.10747 21.2209 1.86078 20.9671 1.81035C19.8389 1.58609 18.6588 1.56147 17.5227 1.73743C17.267 1.77705 17.0918 2.01649 17.1313 2.27231C17.1709 2.52813 17.4102 2.70321 17.6662 2.66366Z" fill="black"/>
</g>
<defs>
<clipPath id="clip0">
<rect width="32" height="32" fill="white"/>
</clipPath>
</defs>
</svg>
