<svg width="21" height="17" viewBox="0 0 21 17" fill="none" xmlns="http://www.w3.org/2000/svg">
<path fill-rule="evenodd" clip-rule="evenodd" d="M19.6317 15.4967C19.2961 15.8526 18.8934 16.0305 18.4225 16.0305H2.66916C2.19825 16.0305 1.79552 15.8526 1.45991 15.4967C1.1243 15.1409 0.957031 14.7126 0.957031 14.214V5.19943C1.27133 5.5702 1.63144 5.89942 2.03737 6.18708C4.62101 8.04837 6.39387 9.35458 7.35701 10.1036C7.76294 10.4221 8.09322 10.6693 8.34679 10.8472C8.59929 11.0252 8.93703 11.2073 9.35787 11.3927C9.77871 11.5781 10.1708 11.6708 10.5352 11.6708H10.5458H10.5565C10.9208 11.6708 11.3129 11.5781 11.7338 11.3927C12.1546 11.2073 12.4913 11.0252 12.7448 10.8472C12.9984 10.6693 13.3287 10.4221 13.7346 10.1036C14.9471 9.17239 16.7242 7.86725 19.0639 6.18708C19.4708 5.89196 19.8278 5.56274 20.1346 5.19943V14.214C20.1346 14.7126 19.9673 15.1409 19.6317 15.4967ZM18.3044 4.97118C15.6228 6.94754 13.9522 8.17703 13.297 8.6618C13.2256 8.71401 13.0732 8.83014 12.842 9.00806C12.6098 9.18599 12.4169 9.32982 12.2635 9.43956C12.1101 9.5493 11.9247 9.67182 11.7073 9.80819C11.49 9.94457 11.2844 10.0468 11.0915 10.115C10.8998 10.1832 10.7208 10.2173 10.5567 10.2173H10.546H10.5354C10.3713 10.2173 10.1923 10.1832 10.0005 10.115C9.8077 10.0468 9.60207 9.94457 9.38473 9.80819C9.16738 9.67182 8.982 9.5493 8.82858 9.43956C8.67516 9.32982 8.48232 9.18599 8.25005 9.00806C8.01886 8.83014 7.8665 8.71401 7.79512 8.6618C7.14628 8.17703 6.2119 7.48664 4.992 6.58956C3.77209 5.69354 3.04015 5.15444 2.7983 4.97225C2.35508 4.65369 1.9385 4.21687 1.54536 3.66072C1.15329 3.10457 0.957249 2.58784 0.957249 2.11159C0.957249 1.52029 1.10534 1.02913 1.40153 0.634921C1.69772 0.241781 2.11962 0.0446777 2.66938 0.0446777H18.4227C18.8861 0.0446777 19.2878 0.222603 19.6266 0.578453C19.9654 0.934304 20.1348 1.36154 20.1348 1.86122C20.1348 2.45892 19.9601 3.03105 19.6106 3.57548C19.2612 4.11991 18.8254 4.58657 18.3044 4.97118Z" fill="#5F9442"/>
</svg>
