<svg width="32" height="32" viewBox="0 0 32 32" fill="none" xmlns="http://www.w3.org/2000/svg">
<g clip-path="url(#clip0)">
<path d="M25.0667 0.266724C21.2375 0.266724 18.1334 3.37086 18.1334 7.20006V7.63739L16.032 13.4187C15.9735 13.5813 15.9973 13.7622 16.096 13.9041C16.1955 14.0475 16.3588 14.1331 16.5334 14.1334H19.2V17.3334C19.2 17.6279 19.4388 17.8667 19.7334 17.8667H25.0667V20.0001C25.0667 20.2946 25.3055 20.5334 25.6 20.5334H31.4667C31.7612 20.5334 32 20.2946 32 20.0001V7.20006C32 3.37086 28.8959 0.266724 25.0667 0.266724ZM30.9334 19.4667H26.1334V17.3334C26.1334 17.0389 25.8946 16.8001 25.6 16.8001H20.2667V13.6001C20.2667 13.3055 20.0279 13.0667 19.7334 13.0667H17.296L19.168 7.91472C19.1891 7.85659 19.2 7.79526 19.2 7.73339V7.20006C19.2 3.95999 21.8266 1.33339 25.0667 1.33339C28.3068 1.33339 30.9334 3.95999 30.9334 7.20006V19.4667Z" fill="black"/>
<path d="M24.0265 7.14136C23.2395 7.92662 21.9654 7.92662 21.1785 7.14136L20.4211 7.89869C21.6265 9.10169 23.5784 9.10169 24.7838 7.89869L24.0265 7.14136Z" fill="black"/>
<path d="M15.968 24.6187L13.8667 18.8373V18.4C13.8667 14.5708 10.7625 11.4667 6.93333 11.4667C3.10413 11.4667 0 14.5708 0 18.4V31.2C0 31.4945 0.2388 31.7333 0.533333 31.7333H6.4C6.69453 31.7333 6.93333 31.4945 6.93333 31.2V29.0667H12.2667C12.5612 29.0667 12.8 28.8279 12.8 28.5333V25.3333H15.4667C15.6412 25.3331 15.8045 25.2474 15.904 25.104C16.0027 24.9621 16.0265 24.7813 15.968 24.6187ZM12.2667 24.2667C11.9721 24.2667 11.7333 24.5055 11.7333 24.8V28H6.4C6.10547 28 5.86667 28.2388 5.86667 28.5333V30.6667H1.06667V18.4C1.06667 15.1599 3.69327 12.5333 6.93333 12.5333C10.1734 12.5333 12.8 15.1599 12.8 18.4V18.9333C12.8001 18.9952 12.8109 19.0565 12.832 19.1147L14.704 24.2667H12.2667Z" fill="black"/>
<path d="M10.8214 18.3413C10.0345 19.1266 8.76033 19.1266 7.9734 18.3413L7.21606 19.0986C8.42146 20.3016 10.3733 20.3016 11.5787 19.0986L10.8214 18.3413Z" fill="black"/>
<path d="M8.53314 4.53333C7.06041 4.53333 5.86648 5.72726 5.86648 7.19999V8.58133L5.17848 7.88799L4.42114 8.64533L6.02114 10.2453C6.22854 10.4545 6.56628 10.4559 6.77541 10.2484C6.77648 10.2474 6.77748 10.2463 6.77848 10.2453L8.37848 8.64533L7.62114 7.88799L6.93314 8.58133V7.19999C6.93314 6.31633 7.64948 5.59999 8.53314 5.59999H14.9331V4.53333H8.53314Z" fill="black"/>
<path d="M17.0667 4.53333H16V5.59999H17.0667V4.53333Z" fill="black"/>
<path d="M29.1787 21.7547C28.9713 21.5456 28.6335 21.5442 28.4244 21.7516C28.4233 21.7526 28.4223 21.7537 28.4213 21.7547L26.8213 23.3547L27.5787 24.112L28.2667 23.4187V25.8667C28.2667 26.7504 27.5503 27.4667 26.6667 27.4667H16V28.5334H26.6667C28.1394 28.5334 29.3333 27.3394 29.3333 25.8667V23.4187L30.0213 24.112L30.7787 23.3547L29.1787 21.7547Z" fill="black"/>
<path d="M14.9334 27.4667H13.8667V28.5333H14.9334V27.4667Z" fill="black"/>
</g>
<defs>
<clipPath id="clip0">
<rect width="32" height="32" fill="white"/>
</clipPath>
</defs>
</svg>
