<svg width="33" height="28" viewBox="0 0 33 28" fill="none" xmlns="http://www.w3.org/2000/svg">
<mask id="mask0" mask-type="alpha" maskUnits="userSpaceOnUse" x="0" y="0" width="32" height="27">
<path fill-rule="evenodd" clip-rule="evenodd" d="M0.13916 26.2063H31.9371V0.296875H0.13916V26.2063V26.2063Z" fill="white"/>
</mask>
<g mask="url(#mask0)">
<path fill-rule="evenodd" clip-rule="evenodd" d="M31.9368 3.36482C30.7666 3.88518 29.509 4.23687 28.189 4.39504C29.5363 3.58528 30.5709 2.30309 31.0581 0.775362C29.7974 1.52505 28.4009 2.06956 26.9146 2.36305C25.7242 1.09148 24.0284 0.296875 22.1517 0.296875C18.548 0.296875 15.6263 3.22624 15.6263 6.83939C15.6263 7.35217 15.6841 7.85154 15.7954 8.33037C10.3723 8.05754 5.56423 5.4528 2.34593 1.49449C1.78426 2.4608 1.46248 3.5847 1.46248 4.78371C1.46248 7.05355 2.61455 9.05615 4.3654 10.2294C3.29569 10.1954 2.28962 9.90115 1.40978 9.41111C1.40931 9.43841 1.40932 9.46582 1.40932 9.49335C1.40932 12.6634 3.65854 15.3077 6.64359 15.9087C6.096 16.0583 5.51956 16.1382 4.92439 16.1382C4.50395 16.1382 4.09515 16.0972 3.69682 16.0208C4.5271 18.6202 6.93688 20.5117 9.79221 20.5646C7.55904 22.3193 4.74547 23.3653 1.6884 23.3653C1.16175 23.3653 0.642316 23.3344 0.131836 23.2739C3.01951 25.1303 6.44943 26.2133 10.1344 26.2133C22.1364 26.2133 28.6996 16.2438 28.6996 7.59806C28.6996 7.31438 28.6933 7.03221 28.6808 6.75167C29.9556 5.82922 31.0619 4.67686 31.9368 3.36482" fill="#5F9442"/>
</g>
</svg>
