<svg width="37" height="32" viewBox="0 0 37 32" fill="none" xmlns="http://www.w3.org/2000/svg">
<mask id="mask0" mask-type="alpha" maskUnits="userSpaceOnUse" x="0" y="1" width="36" height="29">
<path fill-rule="evenodd" clip-rule="evenodd" d="M0.452637 29.9447H35.8956V1.06519H0.452637V29.9447Z" fill="white"/>
</mask>
<g mask="url(#mask0)">
<path fill-rule="evenodd" clip-rule="evenodd" d="M35.8956 4.48481C34.5913 5.06482 33.1895 5.45683 31.7183 5.63314C33.22 4.73055 34.3731 3.30138 34.9162 1.59852C33.511 2.43415 31.9544 3.04108 30.2977 3.36821C28.9709 1.95087 27.0807 1.06519 24.9888 1.06519C20.972 1.06519 17.7155 4.33035 17.7155 8.35768C17.7155 8.92924 17.7799 9.48585 17.9039 10.0196C11.8591 9.71547 6.49995 6.81215 2.91273 2.40009C2.28667 3.47716 1.928 4.72989 1.928 6.06636C1.928 8.59639 3.21214 10.8286 5.16369 12.1363C3.97136 12.0984 2.84996 11.7704 1.86926 11.2242C1.86874 11.2546 1.86874 11.2852 1.86874 11.3159C1.86874 14.8493 4.3758 17.7968 7.70304 18.4666C7.09267 18.6333 6.45015 18.7224 5.78676 18.7224C5.31812 18.7224 4.86246 18.6768 4.41847 18.5916C5.34393 21.4889 8.02994 23.5973 11.2126 23.6562C8.72342 25.6121 5.58732 26.778 2.17982 26.778C1.5928 26.778 1.01382 26.7435 0.444824 26.6762C3.66352 28.7453 7.48662 29.9525 11.5939 29.9525C24.9719 29.9525 32.2874 18.8402 32.2874 9.20332C32.2874 8.88712 32.2804 8.5726 32.2664 8.25991C33.6873 7.23172 34.9205 5.94726 35.8956 4.48481Z" fill="#4B4B4B"/>
</g>
</svg>
