<svg width="23" height="23" viewBox="0 0 23 23" fill="none" xmlns="http://www.w3.org/2000/svg">
<path d="M16.2383 22.25C15.5501 22.25 14.8629 22.1271 14.1965 21.8851C11.1633 20.7834 8.34776 18.9883 6.05398 16.695C3.76063 14.4012 1.96557 11.5857 0.863865 8.55253C0.519798 7.60548 0.418576 6.62846 0.562371 5.64839C0.697044 4.72958 1.05284 3.8377 1.59197 3.06876C2.13326 2.29635 2.85441 1.65427 3.67809 1.21116C4.55563 0.739369 5.51398 0.5 6.52664 0.5C6.7369 0.5 6.92153 0.649008 6.96541 0.854927L8.05626 5.94597C8.08841 6.09541 8.04279 6.2492 7.93462 6.35737L5.9445 8.34748L6.02444 8.50648C7.79777 12.0323 10.7163 14.9508 14.2425 16.7245L14.4015 16.8045L16.3916 14.8144C16.475 14.7309 16.591 14.6827 16.7092 14.6827C16.7409 14.6827 16.7722 14.6862 16.803 14.6927L21.8941 15.7836C22.0996 15.8274 22.249 16.0121 22.249 16.2223C22.249 17.235 22.0097 18.1933 21.5374 19.0713C21.0947 19.895 20.4522 20.6161 19.6798 21.1574C18.9109 21.6961 18.019 22.0519 17.1002 22.187C16.8143 22.2287 16.5241 22.25 16.2383 22.25ZM5.94407 1.42924C4.47092 1.59171 3.18632 2.35717 2.32658 3.58399C1.35868 4.96547 1.13278 6.66451 1.70752 8.24626C3.87445 14.2109 8.53804 18.8749 14.5027 21.0414C15.0723 21.2482 15.6614 21.3533 16.2535 21.3533C17.2887 21.3533 18.2957 21.0314 19.1646 20.4224C20.3914 19.5626 21.1564 18.278 21.3193 16.8049L21.3437 16.5838L16.8534 15.6215L14.812 17.6629C14.7273 17.7476 14.6144 17.7945 14.4945 17.7945C14.428 17.7945 14.3642 17.7802 14.3038 17.7519C10.2206 15.8335 6.91501 12.5284 4.99701 8.44523C4.91665 8.2745 4.9527 8.07032 5.08564 7.93695L7.12745 5.89514L6.16519 1.40491L5.94407 1.42924Z" fill="#5F9442"/>
</svg>
