<svg width="20" height="20" viewBox="0 0 20 20" fill="none" xmlns="http://www.w3.org/2000/svg">
<path d="M17.9956 13.0574C16.8477 13.0574 15.7207 12.8777 14.6523 12.5247C14.1289 12.3459 13.4854 12.51 13.166 12.8381L11.0576 14.4294C8.61279 13.1243 7.10645 11.6189 5.81934 9.19214L7.36426 7.13892C7.76563 6.73804 7.90967 6.15259 7.73682 5.60327C7.38232 4.52954 7.20215 3.40308 7.20215 2.25464C7.20264 1.42505 6.52734 0.750244 5.69775 0.750244H2.25439C1.4248 0.750244 0.75 1.42505 0.75 2.25464C0.75 11.7639 8.48633 19.5002 17.9956 19.5002C18.8252 19.5002 19.5 18.8254 19.5 17.9958V14.5623C19.5 13.7327 18.8252 13.0574 17.9956 13.0574Z" fill="#5F9442"/>
</svg>
