<svg width="32" height="32" viewBox="0 0 32 32" fill="none" xmlns="http://www.w3.org/2000/svg">
<path d="M9.61466 32C11.978 31.999 14.2571 31.1211 16.0107 29.5364C18.9589 32.1864 23.2344 32.7475 26.7668 30.9483C30.2993 29.1492 32.3595 25.3611 31.9498 21.4182C31.5402 17.4751 28.7456 14.1915 24.9188 13.1567C26.5204 9.15185 25.2527 4.57056 21.8199 1.95863C18.3874 -0.65304 13.6338 -0.65304 10.2013 1.95863C6.76876 4.57056 5.50079 9.15185 7.10266 13.1567C2.46125 14.4129 -0.531432 18.9128 0.103854 23.6788C0.739139 28.4449 4.80642 32.0031 9.61466 32ZM13.8787 22.4059C13.8774 21.2647 14.1064 20.1352 14.5522 19.0848C15.5175 19.2488 16.5036 19.2488 17.4689 19.0848C18.7463 22.0975 18.1789 25.5764 16.0107 28.0275C14.6376 26.4769 13.8792 24.4773 13.8787 22.4059ZM16.9552 18.0885C16.3277 18.1624 15.6937 18.1624 15.0662 18.0885C15.3393 17.625 15.6555 17.1883 16.0107 16.7841C16.3657 17.1883 16.6819 17.625 16.9552 18.0885ZM16.7634 16.0317C18.5573 14.4207 20.9558 13.6558 23.3512 13.9312C22.1895 15.9 20.2875 17.3213 18.0701 17.878C17.7089 17.2125 17.2701 16.5921 16.7634 16.0296V16.0317ZM13.951 17.8821C11.7331 17.3247 9.83093 15.9016 8.67019 13.9312C11.0648 13.6548 13.4633 14.4179 15.2581 16.0273C14.7508 16.5913 14.3123 17.2133 13.951 17.8801V17.8821ZM30.9348 22.4059C30.9406 25.7614 28.9746 28.8074 25.9145 30.1845C22.8542 31.5615 19.2707 31.0123 16.7634 28.7822C19.1939 26.082 19.8763 22.2342 18.5222 18.8631C21.0667 18.169 23.2151 16.4614 24.4657 14.1394C28.2615 15.087 30.9273 18.4935 30.9348 22.4059ZM16.0107 1.08573C18.8699 1.08573 21.5388 2.5187 23.1186 4.90187C24.6981 7.28504 24.9786 10.3014 23.865 12.9349C21.0266 12.4701 18.1318 13.3329 16.0107 15.2754C13.8896 13.3329 10.9948 12.4701 8.15618 12.9349C7.04281 10.3014 7.3231 7.28504 8.90286 4.90187C10.4826 2.5187 13.1515 1.08573 16.0107 1.08573ZM7.55499 14.1394C8.80578 16.4614 10.9542 18.169 13.4987 18.8631C12.1443 22.2342 12.8267 26.082 15.2575 28.7822C12.6099 31.1297 8.78678 31.5964 5.65252 29.9541C2.51799 28.3122 0.725085 24.9036 1.14774 21.3904C1.5704 17.8772 4.12065 14.9912 7.55499 14.1394Z" fill="black"/>
</svg>
