<svg width="22" height="32" viewBox="0 0 22 32" fill="none" xmlns="http://www.w3.org/2000/svg">
<path d="M9.36125 3.45119C10.0008 3.45119 10.5996 3.74169 11.0001 4.236C11.4004 3.74175 11.9993 3.45119 12.6389 3.45119C13.2183 3.45119 13.7444 3.68863 14.1271 4.06944C14.3982 4.34056 14.5966 4.686 14.6887 5.07056L14.7117 5.05813C15.0359 4.88456 15.4044 4.78531 15.7924 4.78531C16.4249 4.78531 16.9971 5.04225 17.4117 5.45681C17.8263 5.87138 18.0814 6.44362 18.0814 7.07438C18.0814 7.28338 18.0531 7.48356 17.9982 7.68556C18.4712 7.88931 18.8823 8.20812 19.1976 8.6085C19.6156 9.13475 19.8655 9.80087 19.8655 10.5219C19.8655 11.243 19.6157 11.9091 19.1976 12.4371C18.8822 12.8357 18.4712 13.1546 17.9982 13.3584C18.0531 13.5602 18.0814 13.7606 18.0814 13.9697C18.0814 14.6021 17.8263 15.1744 17.4117 15.5871C16.9971 16.0017 16.4249 16.2586 15.7924 16.2586C15.4008 16.2586 15.0324 16.1612 14.6887 15.9734C14.5965 16.3579 14.3982 16.7034 14.1271 16.9744C14.0066 17.0949 13.8719 17.2012 13.7267 17.2898L12.6318 23.1399H14.8499V21.0741C14.8499 20.6914 14.9474 20.3673 15.128 20.089C15.3193 19.7966 15.5692 19.6018 15.8668 19.4317C17.3886 18.5707 18.6608 17.3127 19.543 15.7998C20.3969 14.3381 20.8859 12.6373 20.8859 10.8231C20.8859 9.45194 20.6078 8.14794 20.1046 6.9645C19.582 5.73137 18.8166 4.62769 17.8688 3.71156C17.6827 3.53275 17.6756 3.23681 17.8546 3.05081C18.0335 2.86481 18.3294 2.85938 18.5154 3.03837C19.5554 4.04119 20.3934 5.24956 20.9656 6.59769C21.5184 7.89813 21.8231 9.32606 21.8231 10.8231C21.8231 12.8092 21.2881 14.6713 20.3526 16.2711C19.3889 17.9223 17.9981 19.2971 16.3291 20.2432C16.1733 20.33 16.0121 20.4486 15.9128 20.6011C15.8313 20.7269 15.787 20.8811 15.787 21.0741V23.6094V27.2148C15.7871 29.858 13.6434 32 11.0001 32C9.67844 32 8.4825 31.465 7.61613 30.5986C6.74981 29.7323 6.213 28.5364 6.213 27.2147V23.6094V21.0741C6.213 20.9004 6.16869 20.748 6.08719 20.6204C5.98263 20.4539 5.84094 20.3405 5.67256 20.2448C5.3785 20.0783 5.08975 19.8958 4.80806 19.6974C4.52813 19.5025 4.25525 19.2917 3.99125 19.0667C3.79463 18.9002 3.77156 18.606 3.93806 18.4093C4.10463 18.2126 4.39875 18.1897 4.59544 18.3562C4.83288 18.5582 5.08094 18.7495 5.34313 18.932C5.59994 19.1127 5.86569 19.2793 6.13857 19.4333C6.44507 19.607 6.702 19.8391 6.87919 20.1225C7.05275 20.3989 7.15025 20.7177 7.15025 21.0739V23.1397H9.36838L8.27344 17.2896C8.12819 17.201 7.9935 17.0947 7.87307 16.9742C7.602 16.7032 7.40356 16.3577 7.31144 15.9732L7.28844 15.9856C6.96419 16.1592 6.59575 16.2584 6.20775 16.2584C5.57525 16.2584 5.003 16.0015 4.58844 15.5869C4.17382 15.1742 3.91869 14.6019 3.91869 13.9695C3.91869 13.7604 3.947 13.5601 4.00194 13.3582C3.52894 13.1544 3.11788 12.8355 2.80256 12.4369C2.3845 11.909 2.13463 11.2429 2.13463 10.5218C2.13463 9.80069 2.38444 9.13456 2.80256 8.60831C3.11794 8.20794 3.52894 7.88906 4.00194 7.68538C3.947 7.48331 3.91869 7.28312 3.91869 7.07419C3.91869 6.44344 4.17382 5.87119 4.58844 5.45662C5.003 5.04206 5.57525 4.78512 6.20775 4.78512C6.59932 4.78512 6.96775 4.88438 7.31144 5.07037C7.40363 4.68587 7.60207 4.34037 7.87307 4.06925C8.25575 3.68863 8.78194 3.45119 9.36125 3.45119ZM12.7186 17.5909C12.0559 17.6176 11.4164 17.3216 11.0001 16.8079C10.5838 17.3217 9.94413 17.6176 9.28157 17.5909L10.3198 23.1399H11.6804L12.7186 17.5909ZM14.8499 26.7453V24.0772H7.15019V26.7453H9.93882C10.1975 26.7453 10.4065 26.9543 10.4065 27.2148C10.4065 27.4734 10.1974 27.6825 9.93882 27.6825H7.1785C7.28481 28.5576 7.68519 29.3426 8.27875 29.9361C8.97507 30.6322 9.93707 31.0627 11.0001 31.0627C12.9666 31.0627 14.5895 29.5869 14.8216 27.6825H12.0613C11.8026 27.6825 11.5936 27.4734 11.5936 27.2148C11.5936 26.9543 11.8027 26.7453 12.0613 26.7453H14.8499ZM3.19407 16.8929C3.3535 17.0948 3.31806 17.3889 3.11438 17.5484C2.91063 17.7061 2.61831 17.6706 2.45888 17.4669C1.72894 16.5314 1.15138 15.4756 0.759814 14.3364C0.382439 13.2343 0.177002 12.0526 0.177002 10.8231C0.177002 7.83431 1.38881 5.129 3.34644 3.16937C5.30594 1.21181 8.01125 0 11.0001 0C12.0401 0 13.0499 0.148813 14.0084 0.425187C14.9969 0.710438 15.9253 1.13381 16.7739 1.66887C16.9918 1.80719 17.0574 2.09588 16.9211 2.31375C16.7829 2.53163 16.4941 2.59719 16.2762 2.46088C15.4984 1.97012 14.6498 1.58394 13.748 1.32344C12.8799 1.07187 11.9586 0.937187 11.0001 0.937187C8.26994 0.937187 5.7985 2.0445 4.01088 3.83394C2.22144 5.62162 1.11419 8.09306 1.11419 10.8232C1.11419 11.9482 1.302 13.0272 1.64744 14.0318C2.00525 15.077 2.53319 16.0425 3.19407 16.8929ZM16.5507 12.8499C16.3328 12.7029 16.0706 12.6178 15.7924 12.6178C15.6436 12.6178 15.5178 12.6374 15.3761 12.6834C15.1298 12.7631 14.8658 12.6284 14.7861 12.3822C14.7064 12.1377 14.841 11.8738 15.0855 11.7923C15.3069 11.7214 15.5603 11.6807 15.7924 11.6807C16.2601 11.6807 16.7048 11.8225 17.0751 12.0741C17.2593 12.1981 17.4258 12.3504 17.5676 12.5259C17.9237 12.384 18.2338 12.152 18.4659 11.8579C18.7546 11.4929 18.9283 11.0287 18.9283 10.5221C18.9283 10.0154 18.7546 9.55125 18.4659 9.18625C18.1701 8.81238 17.7518 8.5395 17.2718 8.42612C17.0202 8.36762 16.8625 8.11606 16.921 7.86462C16.9334 7.81138 16.9546 7.76181 16.983 7.71925C17.0326 7.62538 17.0733 7.52612 17.1016 7.41994C17.13 7.31181 17.1442 7.19669 17.1442 7.0745C17.1442 6.70244 16.9936 6.36406 16.7491 6.11956C16.5046 5.87506 16.1663 5.72444 15.7924 5.72444C15.5603 5.72444 15.3442 5.78119 15.1546 5.88212C14.8606 6.03988 14.6338 6.30206 14.5204 6.61381C14.469 6.75556 14.4424 6.90969 14.4424 7.0745C14.4424 7.34906 14.5221 7.60244 14.6621 7.815C14.8057 8.03475 15.0112 8.21012 15.2539 8.31631C15.4896 8.41913 15.5976 8.69375 15.4948 8.93119C15.3921 9.16862 15.1174 9.27662 14.8801 9.17212C14.469 8.99319 14.12 8.69725 13.8773 8.32706C13.6416 7.96731 13.5035 7.53688 13.5035 7.0745C13.5035 6.80338 13.5531 6.54119 13.6417 6.29669C13.686 6.17269 13.7427 6.05219 13.8083 5.93875V5.55788C13.8083 5.23719 13.6753 4.94481 13.4645 4.73231C13.2519 4.51969 12.9596 4.38856 12.6389 4.38856C12.3164 4.38856 12.0241 4.51969 11.8133 4.73231C11.6007 4.94481 11.4696 5.23719 11.4696 5.55788V10.4016C11.4696 10.724 11.5989 11.0164 11.8115 11.2272C12.0223 11.4398 12.3147 11.5709 12.6389 11.5709C12.9613 11.5709 13.2536 11.4398 13.4645 11.2272C13.6771 11.0164 13.8083 10.724 13.8083 10.4016C13.8083 10.1411 14.0173 9.93213 14.2759 9.93213C14.5346 9.93213 14.7454 10.1411 14.7454 10.4016C14.7454 10.9827 14.5098 11.5089 14.1271 11.8898C13.7462 12.2725 13.2199 12.5081 12.6389 12.5081C12.2048 12.5081 11.8026 12.377 11.4696 12.1539V15.4864C11.4696 15.8071 11.6007 16.0994 11.8133 16.3119C12.0241 16.5246 12.3164 16.6557 12.6389 16.6557C12.9596 16.6557 13.2519 16.5246 13.4645 16.3119C13.6753 16.0994 13.8083 15.8071 13.8083 15.4864V14.9761C13.8083 14.7174 14.0173 14.5066 14.2759 14.5066C14.4495 14.5066 14.6001 14.6005 14.6816 14.7405C14.8021 14.9159 14.9651 15.0612 15.1546 15.1621C15.3442 15.2631 15.5603 15.3216 15.7924 15.3216C16.1662 15.3216 16.5046 15.1692 16.7491 14.9247C16.9936 14.6803 17.1442 14.3436 17.1442 13.9699C17.1442 13.8476 17.13 13.7324 17.1016 13.6243C17.0184 13.3087 16.8236 13.0342 16.5507 12.8499ZM4.4325 12.5258C4.57425 12.3503 4.74075 12.198 4.925 12.0739C5.29531 11.8224 5.74 11.6806 6.20769 11.6806C6.43975 11.6806 6.69313 11.7213 6.91457 11.7922C7.15907 11.8737 7.29369 12.1376 7.214 12.3821C7.13432 12.6283 6.87031 12.763 6.62406 12.6833C6.48231 12.6373 6.35656 12.6177 6.20775 12.6177C5.92963 12.6177 5.66744 12.7027 5.44944 12.8497C5.17663 13.0341 4.98175 13.3086 4.89844 13.6241C4.87013 13.7322 4.85588 13.8473 4.85588 13.9696C4.85588 14.3434 5.00644 14.6801 5.25094 14.9244C5.49544 15.1689 5.83382 15.3213 6.20769 15.3213C6.43975 15.3213 6.65588 15.2628 6.84544 15.1619C7.035 15.0609 7.198 14.9157 7.31844 14.7402C7.4 14.6002 7.55057 14.5064 7.72419 14.5064C7.98288 14.5064 8.19182 14.7172 8.19182 14.9759V15.4861C8.19182 15.8068 8.32475 16.0992 8.53731 16.3117C8.74813 16.5243 9.0405 16.6554 9.36119 16.6554C9.68363 16.6554 9.97594 16.5243 10.1868 16.3117C10.3994 16.0992 10.5305 15.8068 10.5305 15.4861V12.1536C10.1974 12.3767 9.79525 12.5079 9.36119 12.5079C8.78013 12.5079 8.25381 12.2723 7.873 11.8896C7.49031 11.5087 7.25469 10.9824 7.25469 10.4014C7.25469 10.1409 7.4655 9.93188 7.72419 9.93188C7.98288 9.93188 8.19182 10.1409 8.19182 10.4014C8.19182 10.7238 8.32294 11.0161 8.53557 11.2269C8.74644 11.4396 9.03881 11.5707 9.36119 11.5707C9.68544 11.5707 9.97775 11.4396 10.1886 11.2269C10.4011 11.0161 10.5305 10.7238 10.5305 10.4014V5.55762C10.5305 5.23694 10.3994 4.94456 10.1868 4.73206C9.97594 4.51944 9.68363 4.38831 9.36119 4.38831C9.0405 4.38831 8.74813 4.51944 8.53731 4.73206C8.32475 4.94456 8.19182 5.23694 8.19182 5.55762V5.9385C8.25738 6.05188 8.31413 6.17237 8.35838 6.29644C8.44694 6.54094 8.49657 6.80313 8.49657 7.07425C8.49657 7.53663 8.35838 7.96706 8.12275 8.32681C7.88006 8.69706 7.53106 8.99294 7.12007 9.17188C6.88444 9.27637 6.60806 9.16831 6.50525 8.93094C6.4025 8.6935 6.51057 8.41888 6.74619 8.31606C6.98894 8.20988 7.19438 8.03444 7.33794 7.81475C7.47788 7.60225 7.55763 7.34881 7.55763 7.07425C7.55763 6.90944 7.53106 6.75525 7.47969 6.61356C7.36631 6.30181 7.13957 6.03956 6.84544 5.88188C6.65588 5.78094 6.43975 5.72419 6.20769 5.72419C5.83388 5.72419 5.4955 5.87481 5.25094 6.11931C5.00644 6.36381 4.85588 6.70219 4.85588 7.07425C4.85588 7.19644 4.87006 7.31156 4.89844 7.41969C4.94444 7.58975 5.0455 7.72438 5.07913 7.86438C5.13763 8.11581 4.97994 8.36744 4.72838 8.42587C4.24825 8.53925 3.83013 8.81213 3.53425 9.186C3.2455 9.551 3.07188 10.0151 3.07188 10.5218C3.07188 11.0285 3.2455 11.4926 3.53425 11.8576C3.76806 12.1519 4.07638 12.3839 4.4325 12.5258Z" fill="black"/>
</svg>
