<svg width="19" height="19" viewBox="0 0 19 19" fill="none" xmlns="http://www.w3.org/2000/svg">
<g clip-path="url(#clip0)">
<path d="M0.793378 18.3085C0.692245 18.3085 0.593861 18.2685 0.520898 18.1948C0.424712 18.0975 0.387612 17.9562 0.423751 17.8242L1.5946 13.5486C0.865654 12.2304 0.481325 10.7393 0.481874 9.2256C0.483935 4.30297 4.48992 0.298218 9.41214 0.298218C11.7996 0.29918 14.0429 1.22916 15.7291 2.91652C17.4149 4.60403 18.343 6.84721 18.3423 9.23275C18.3401 14.1555 14.3341 18.1605 9.41214 18.1605C9.41214 18.1605 9.40843 18.1605 9.4083 18.1605C7.9706 18.16 6.54527 17.8096 5.27617 17.1459L0.890525 18.296C0.858372 18.3044 0.825668 18.3085 0.793378 18.3085V18.3085Z" fill="#E5E5E5"/>
<path d="M0.792969 17.925L2.00546 13.4973C1.25754 12.2014 0.864146 10.7314 0.864696 9.22544C0.866619 4.51414 4.70057 0.681152 9.41174 0.681152C11.6979 0.682114 13.8438 1.57197 15.4575 3.18706C17.0711 4.80215 17.9595 6.94901 17.9586 9.23232C17.9566 13.9435 14.1221 17.777 9.41174 17.777C9.41146 17.777 9.41187 17.777 9.41174 17.777H9.40803C7.97761 17.7765 6.5722 17.4177 5.32385 16.7368L0.792969 17.925ZM5.53368 15.19L5.79324 15.3438C6.88371 15.991 8.13398 16.3333 9.40899 16.334H9.41174C13.327 16.334 16.5138 13.1478 16.5154 9.23177C16.5161 7.33403 15.778 5.54951 14.4367 4.20717C13.0954 2.86484 11.3119 2.12517 9.41435 2.12435C5.49589 2.12435 2.30926 5.31015 2.30775 9.22599C2.3072 10.5679 2.6826 11.8747 3.39382 13.0055L3.56284 13.2743L2.84502 15.8949L5.53368 15.19Z" fill="white"/>
<path d="M1.08984 17.6263L2.26042 13.3517C1.53821 12.1007 1.15855 10.6815 1.15896 9.22782C1.16075 4.67962 4.8621 0.97937 9.40989 0.97937C11.6172 0.980332 13.6889 1.83941 15.2464 3.39857C16.8044 4.95774 17.6618 7.03026 17.661 9.23428C17.659 13.7826 13.9575 17.4833 9.4103 17.4833C9.40989 17.4833 9.41044 17.4833 9.4103 17.4833H9.40659C8.02578 17.4827 6.66888 17.1362 5.46381 16.4794L1.08984 17.6263Z" fill="#64B161"/>
<path d="M0.792969 17.925L2.00546 13.4973C1.25754 12.2014 0.864146 10.7314 0.864696 9.22544C0.866619 4.51414 4.70057 0.681152 9.41174 0.681152C11.6979 0.682114 13.8438 1.57197 15.4575 3.18706C17.0711 4.80215 17.9595 6.94901 17.9586 9.23232C17.9566 13.9435 14.1221 17.777 9.41174 17.777C9.41146 17.777 9.41187 17.777 9.41174 17.777H9.40803C7.97761 17.7765 6.5722 17.4177 5.32385 16.7368L0.792969 17.925ZM5.53368 15.19L5.79324 15.3438C6.88371 15.991 8.13398 16.3333 9.40899 16.334H9.41174C13.327 16.334 16.5138 13.1478 16.5154 9.23177C16.5161 7.33403 15.778 5.54951 14.4367 4.20717C13.0954 2.86484 11.3119 2.12517 9.41435 2.12435C5.49589 2.12435 2.30926 5.31015 2.30775 9.22599C2.3072 10.5679 2.6826 11.8747 3.39382 13.0055L3.56284 13.2743L2.84502 15.8949L5.53368 15.19Z" fill="white"/>
<path fill-rule="evenodd" clip-rule="evenodd" d="M7.27331 5.65381C7.11337 5.2982 6.94491 5.29106 6.79266 5.28487C6.66817 5.27951 6.52568 5.27979 6.38346 5.27979C6.2411 5.27979 6.00971 5.33338 5.81404 5.54705C5.61824 5.76071 5.06641 6.27737 5.06641 7.32813C5.06641 8.37902 5.83177 9.39433 5.93853 9.53696C6.0453 9.67945 7.41594 11.9046 9.58657 12.7607C11.3906 13.4722 11.7576 13.3306 12.1492 13.2951C12.5408 13.2595 13.4127 12.7784 13.5906 12.2798C13.7687 11.7811 13.7687 11.3538 13.7153 11.2643C13.6618 11.1754 13.5195 11.122 13.3059 11.0152C13.0924 10.9084 12.0425 10.3916 11.8467 10.3205C11.6508 10.2491 11.5085 10.2137 11.3661 10.4275C11.2236 10.641 10.8147 11.122 10.6901 11.2643C10.5655 11.4071 10.4408 11.4249 10.2273 11.318C10.0138 11.211 9.32591 10.9856 8.50998 10.2581C7.87516 9.69209 7.44645 8.99296 7.32182 8.77915C7.19733 8.56562 7.31976 8.46009 7.41567 8.34343C7.58839 8.13334 7.87818 7.7556 7.94936 7.61325C8.02053 7.47062 7.98495 7.34599 7.93163 7.23909C7.87818 7.13232 7.46307 6.0762 7.27331 5.65381V5.65381Z" fill="white"/>
</g>
<defs>
<clipPath id="clip0">
<rect width="18.0103" height="18.0103" fill="white" transform="translate(0.375 0.298218)"/>
</clipPath>
</defs>
</svg>
