<svg width="21" height="10" viewBox="0 0 21 10" fill="none" xmlns="http://www.w3.org/2000/svg">
<path d="M0.483299 5.7786C0.483299 5.98351 0.642673 6.14288 0.847584 6.14288L15.0547 6.14288V8.69288C15.0547 8.84087 15.1458 8.9661 15.271 9.02302C15.4076 9.07994 15.5556 9.05717 15.6695 8.95471L20.0409 4.9248C20.1092 4.8565 20.1547 4.75404 20.1547 4.65159C20.1547 4.54913 20.1092 4.45806 20.0409 4.38976L15.6695 0.405382C15.5556 0.31431 15.4076 0.291543 15.271 0.348462C15.1344 0.405382 15.0547 0.530605 15.0547 0.678596V3.2286L0.847584 3.2286C0.642673 3.2286 0.483299 3.38797 0.483299 3.59288V5.7786Z" fill="white"/>
</svg>
