<svg width="18" height="9" viewBox="0 0 18 9" fill="none" xmlns="http://www.w3.org/2000/svg">
<path d="M0 5.39286C0 5.57366 0.140624 5.71429 0.321427 5.71429L12.8571 5.71429V7.96429C12.8571 8.09487 12.9375 8.20536 13.048 8.25558C13.1685 8.3058 13.2991 8.28571 13.3996 8.19531L17.2567 4.63951C17.317 4.57924 17.3571 4.48884 17.3571 4.39844C17.3571 4.30804 17.317 4.22768 17.2567 4.16741L13.3996 0.651786C13.2991 0.571429 13.1685 0.551339 13.048 0.601562C12.9275 0.651786 12.8571 0.762277 12.8571 0.892857V3.14286L0.321427 3.14286C0.140624 3.14286 0 3.28348 0 3.46429V5.39286Z" fill="white"/>
</svg>
