<svg width="15" height="7" viewBox="0 0 15 7" fill="none" xmlns="http://www.w3.org/2000/svg">
<path d="M0.90017 4.31431C0.90017 4.45895 1.01267 4.57145 1.15731 4.57145L11.1859 4.57145V6.37145C11.1859 6.47592 11.2502 6.56431 11.3386 6.60449C11.435 6.64467 11.5395 6.6286 11.6198 6.55627L14.7055 3.71163C14.7537 3.66342 14.7859 3.5911 14.7859 3.51878C14.7859 3.44645 14.7537 3.38217 14.7055 3.33395L11.6198 0.521453C11.5395 0.457167 11.435 0.441096 11.3386 0.481274C11.2421 0.521453 11.1859 0.609846 11.1859 0.71431L11.1859 2.51431L1.15731 2.51431C1.01267 2.51431 0.90017 2.62681 0.90017 2.77145V4.31431Z" fill="white"/>
</svg>
