<svg width="18" height="9" viewBox="0 0 18 9" fill="none" xmlns="http://www.w3.org/2000/svg">
<path d="M18 3.60714C18 3.42634 17.8594 3.28571 17.6786 3.28571H5.14286V1.03571C5.14286 0.905133 5.0625 0.794642 4.95201 0.744419C4.83147 0.694196 4.70089 0.714285 4.60045 0.804688L0.743304 4.36049C0.683036 4.42076 0.642857 4.51116 0.642857 4.60156C0.642857 4.69196 0.683036 4.77232 0.743304 4.83259L4.60045 8.34821C4.70089 8.42857 4.83147 8.44866 4.95201 8.39844C5.07254 8.34821 5.14286 8.23772 5.14286 8.10714V5.85714H17.6786C17.8594 5.85714 18 5.71652 18 5.53571V3.60714Z" fill="black" fill-opacity="0.75"/>
</svg>
